MaoKenWangFengYaSong.ufo
<glyph name="exclam" format="2">
  <advance width="319" height="1000" />
  <unicode hex="0021" />
  <outline>
    <contour>
      <point x="159" y="-16" type="qcurve" />
      <point x="132" y="-17" />
      <point x="93" y="29" />
      <point x="93" y="99" />
      <point x="132" y="149" />
      <point x="159" y="150" type="qcurve" />
      <point x="187" y="152" />
      <point x="225" y="106" />
      <point x="225" y="36" />
      <point x="187" y="-14" />
    </contour>
    <contour>
      <point x="112" y="733" type="qcurve" smooth="yes" />
      <point x="129" y="755" />
      <point x="189" y="758" />
      <point x="224" y="718" />
      <point x="224" y="678" type="qcurve" smooth="yes" />
      <point x="224" y="609" />
      <point x="188" y="399" type="qcurve" />
      <point x="172" y="248" type="line" />
      <point x="147" y="247" type="line" />
      <point x="130" y="396" type="line" />
      <point x="95" y="604" />
      <point x="95" y="671" type="qcurve" smooth="yes" />
      <point x="95" y="711" />
    </contour>
  </outline>
</glyph>
<glyph name="quotedbl" format="2">
  <advance width="372" height="1000" />
  <unicode hex="0022" />
  <outline>
    <contour>
      <point x="102" y="816" type="qcurve" smooth="yes" />
      <point x="127" y="817" />
      <point x="156" y="781" />
      <point x="156" y="744" type="qcurve" smooth="yes" />
      <point x="156" y="723" />
      <point x="149" y="668" />
      <point x="134" y="578" />
      <point x="134" y="577" type="qcurve" />
      <point x="115" y="463" type="line" />
      <point x="88" y="462" type="line" />
      <point x="69" y="574" type="line" />
      <point x="68" y="585" />
      <point x="56" y="658" />
      <point x="48" y="718" />
      <point x="48" y="738" type="qcurve" smooth="yes" />
      <point x="48" y="813" />
    </contour>
    <contour>
      <point x="270" y="825" type="qcurve" smooth="yes" />
      <point x="295" y="826" />
      <point x="324" y="789" />
      <point x="324" y="752" type="qcurve" smooth="yes" />
      <point x="324" y="731" />
      <point x="317" y="676" />
      <point x="302" y="586" />
      <point x="302" y="585" type="qcurve" />
      <point x="283" y="471" type="line" />
      <point x="256" y="470" type="line" />
      <point x="237" y="582" type="line" />
      <point x="236" y="594" />
      <point x="224" y="666" />
      <point x="216" y="727" />
      <point x="216" y="747" type="qcurve" smooth="yes" />
      <point x="216" y="822" />
    </contour>
  </outline>
</glyph>
<glyph name="numbersign" format="2">
  <advance width="498" height="1000" />
  <unicode hex="0023" />
  <outline>
    <contour>
      <point x="312" y="293" type="line" />
      <point x="329" y="441" type="line" />
      <point x="184" y="434" type="line" />
      <point x="167" y="286" type="line" />
    </contour>
    <contour>
      <point x="476" y="449" type="line" />
      <point x="366" y="443" type="line" />
      <point x="348" y="295" type="line" />
      <point x="446" y="300" type="line" />
      <point x="446" y="204" type="line" />
      <point x="336" y="199" type="line" />
      <point x="312" y="3" type="line" />
      <point x="276" y="2" type="line" />
      <point x="300" y="197" type="line" />
      <point x="156" y="190" type="line" />
      <point x="132" y="-6" type="line" />
      <point x="96" y="-7" type="line" />
      <point x="119" y="188" type="line" />
      <point x="23" y="183" type="line" />
      <point x="23" y="279" type="line" />
      <point x="131" y="284" type="line" />
      <point x="148" y="432" type="line" />
      <point x="52" y="427" type="line" />
      <point x="52" y="523" type="line" />
      <point x="160" y="529" type="line" />
      <point x="183" y="719" type="line" />
      <point x="219" y="721" type="line" />
      <point x="196" y="531" type="line" />
      <point x="340" y="538" type="line" />
      <point x="364" y="728" type="line" />
      <point x="400" y="730" type="line" />
      <point x="377" y="540" type="line" />
      <point x="476" y="545" type="line" />
    </contour>
  </outline>
</glyph>
<glyph name="dollar" format="2">
  <advance width="488" height="1000" />
  <unicode hex="0024" />
  <outline>
    <contour>
      <point x="268" y="286" type="qcurve" />
      <point x="268" y="27" type="line" />
      <point x="306" y="40" />
      <point x="350" y="109" />
      <point x="350" y="157" type="qcurve" smooth="yes" />
      <point x="350" y="207" />
      <point x="314" y="263" />
    </contour>
    <contour>
      <point x="235" y="437" type="qcurve" />
      <point x="235" y="686" type="line" />
      <point x="199" y="674" />
      <point x="155" y="607" />
      <point x="155" y="559" type="qcurve" smooth="yes" />
      <point x="155" y="513" />
      <point x="194" y="458" />
    </contour>
    <contour>
      <point x="271" y="422" type="line" />
      <point x="279" y="419" type="line" />
      <point x="368" y="378" />
      <point x="441" y="277" />
      <point x="441" y="200" type="qcurve" smooth="yes" />
      <point x="441" y="117" />
      <point x="347" y="2" />
      <point x="268" y="-13" type="qcurve" />
      <point x="268" y="-127" type="line" />
      <point x="233" y="-128" type="line" />
      <point x="233" y="-16" type="line" />
      <point x="154" y="-19" />
      <point x="62" y="60" />
      <point x="57" y="133" type="qcurve" />
      <point x="69" y="175" />
      <point x="102" y="177" type="qcurve" smooth="yes" />
      <point x="145" y="179" />
      <point x="152" y="113" type="qcurve" />
      <point x="163" y="31" type="line" />
      <point x="194" y="20" />
      <point x="233" y="22" type="qcurve" />
      <point x="233" y="304" type="line" />
      <point x="216" y="312" type="line" smooth="yes" />
      <point x="140" y="346" />
      <point x="67" y="443" />
      <point x="67" y="522" type="qcurve" smooth="yes" />
      <point x="67" y="604" />
      <point x="159" y="717" />
      <point x="235" y="728" type="qcurve" />
      <point x="235" y="831" type="line" />
      <point x="271" y="832" type="line" />
      <point x="271" y="730" type="line" />
      <point x="339" y="729" />
      <point x="424" y="650" />
      <point x="429" y="582" type="qcurve" />
      <point x="421" y="537" />
      <point x="387" y="535" type="qcurve" smooth="yes" />
      <point x="339" y="533" />
      <point x="330" y="607" type="qcurve" />
      <point x="317" y="687" type="line" />
      <point x="295" y="693" />
      <point x="271" y="691" type="qcurve" />
    </contour>
  </outline>
</glyph>
<glyph name="percent" format="2">
  <advance width="805" height="1000" />
  <unicode hex="0025" />
  <outline>
    <contour>
      <point x="212" y="-41" type="line" />
      <point x="187" y="-20" type="line" />
      <point x="599" y="752" type="line" />
      <point x="624" y="732" type="line" />
    </contour>
    <contour>
      <point x="142" y="486" type="qcurve" smooth="yes" />
      <point x="142" y="286" />
      <point x="199" y="289" type="qcurve" smooth="yes" />
      <point x="258" y="292" />
      <point x="258" y="492" type="qcurve" smooth="yes" />
      <point x="258" y="693" />
      <point x="199" y="690" type="qcurve" smooth="yes" />
      <point x="142" y="687" />
    </contour>
    <contour>
      <point x="107.5" y="658" type="qcurve" smooth="yes" />
      <point x="144" y="717" />
      <point x="255" y="722" />
      <point x="328" y="612" />
      <point x="328" y="496" type="qcurve" smooth="yes" />
      <point x="328" y="381" />
      <point x="255" y="264" />
      <point x="199" y="261" type="qcurve" smooth="yes" />
      <point x="145" y="259" />
      <point x="71" y="368" />
      <point x="71" y="483" type="qcurve" smooth="yes" />
      <point x="71" y="599" />
    </contour>
    <contour>
      <point x="547" y="226" type="qcurve" smooth="yes" />
      <point x="547" y="26" />
      <point x="605" y="29" type="qcurve" smooth="yes" />
      <point x="663" y="32" />
      <point x="663" y="232" type="qcurve" smooth="yes" />
      <point x="663" y="433" />
      <point x="605" y="430" type="qcurve" smooth="yes" />
      <point x="547" y="427" />
    </contour>
    <contour>
      <point x="605" y="459" type="qcurve" smooth="yes" />
      <point x="660" y="461" />
      <point x="734" y="351" />
      <point x="734" y="235" type="qcurve" smooth="yes" />
      <point x="734" y="120" />
      <point x="660" y="3" />
      <point x="605" y="1" type="qcurve" smooth="yes" />
      <point x="551" y="-2" />
      <point x="477" y="107" />
      <point x="477" y="337" />
      <point x="551" y="456" />
    </contour>
  </outline>
</glyph>
<glyph name="ampersand" format="2">
  <advance width="657" height="1000" />
  <unicode hex="0026" />
  <outline>
    <contour>
      <point x="373" y="110" type="qcurve" />
      <point x="332" y="163" />
      <point x="186" y="374" type="qcurve" />
      <point x="126" y="308" />
      <point x="126" y="217" type="qcurve" smooth="yes" />
      <point x="126" y="144" />
      <point x="201" y="53" />
      <point x="261" y="56" type="qcurve" smooth="yes" />
      <point x="326" y="60" />
    </contour>
    <contour>
      <point x="261" y="713" type="qcurve" />
      <point x="230" y="712" />
      <point x="187" y="655" />
      <point x="187" y="613" type="qcurve" smooth="yes" />
      <point x="187" y="555" />
      <point x="225" y="495" type="qcurve" />
      <point x="230" y="485" />
      <point x="258" y="446" type="qcurve" />
      <point x="330" y="533" />
      <point x="330" y="616" type="qcurve" smooth="yes" />
      <point x="330" y="664" />
      <point x="294" y="715" />
    </contour>
    <contour>
      <point x="619" y="458" type="line" />
      <point x="554" y="443" type="line" />
      <point x="538" y="362" />
      <point x="494" y="243" />
      <point x="459" y="181" type="qcurve" />
      <point x="478" y="158" />
      <point x="553" y="64" />
      <point x="565" y="50" type="qcurve" />
      <point x="615" y="45" type="line" />
      <point x="614" y="14" type="line" />
      <point x="563" y="-2" />
      <point x="539" y="-4" type="qcurve" />
      <point x="470" y="-7" />
      <point x="426" y="43" type="qcurve" smooth="yes" />
      <point x="401" y="72" />
      <point x="390" y="88" type="qcurve" />
      <point x="322" y="-16" />
      <point x="218" y="-21" type="qcurve" smooth="yes" />
      <point x="133" y="-25" />
      <point x="34" y="85" />
      <point x="34" y="169" type="qcurve" smooth="yes" />
      <point x="34" y="307" />
      <point x="172" y="394" type="qcurve" />
      <point x="162" y="408" type="line" />
      <point x="106" y="492" />
      <point x="106" y="578" type="qcurve" smooth="yes" />
      <point x="106" y="655" />
      <point x="192" y="750" />
      <point x="262" y="753" type="qcurve" />
      <point x="330" y="757" />
      <point x="406" y="683" />
      <point x="406" y="618" type="qcurve" smooth="yes" />
      <point x="406" y="561" />
      <point x="342" y="470" />
      <point x="273" y="426" type="qcurve" />
      <point x="353" y="316" />
      <point x="442" y="202" type="qcurve" />
      <point x="489" y="306" />
      <point x="506" y="441" type="qcurve" />
      <point x="433" y="449" type="line" />
      <point x="433" y="481" type="line" />
      <point x="619" y="490" type="line" />
    </contour>
  </outline>
</glyph>
<glyph name="quotesingle" format="2">
  <advance width="204" height="1000" />
  <unicode hex="0027" />
  <outline>
    <contour>
      <point x="102" y="820" type="qcurve" smooth="yes" />
      <point x="127" y="821" />
      <point x="156" y="785" />
      <point x="156" y="748" type="qcurve" smooth="yes" />
      <point x="156" y="727" />
      <point x="149" y="672" />
      <point x="134" y="582" />
      <point x="134" y="581" type="qcurve" />
      <point x="115" y="467" type="line" />
      <point x="89" y="466" type="line" />
      <point x="69" y="578" type="line" />
      <point x="68" y="589" />
      <point x="56" y="662" />
      <point x="48" y="722" />
      <point x="48" y="742" type="qcurve" smooth="yes" />
      <point x="48" y="817" />
    </contour>
  </outline>
</glyph>
<glyph name="parenleft" format="2">
  <advance width="343" height="1000" />
  <unicode hex="0028" />
  <outline>
    <contour>
      <point x="170" y="311" type="qcurve" smooth="yes" />
      <point x="170" y="169" />
      <point x="231" y="-53" />
      <point x="306" y="-175" type="qcurve" />
      <point x="288" y="-196" type="line" />
      <point x="186" y="-90" />
      <point x="87" y="153" />
      <point x="87" y="307" type="qcurve" smooth="yes" />
      <point x="87" y="460" />
      <point x="187" y="714" />
      <point x="288" y="829" type="qcurve" />
      <point x="306" y="810" type="line" />
      <point x="228" y="680" />
      <point x="170" y="455" />
    </contour>
  </outline>
</glyph>
<glyph name="parenright" format="2">
  <advance width="343" height="1000" />
  <unicode hex="0029" />
  <outline>
    <contour>
      <point x="173" y="311" type="qcurve" smooth="yes" />
      <point x="173" y="452" />
      <point x="112" y="674" />
      <point x="37" y="796" type="qcurve" />
      <point x="55" y="817" type="line" />
      <point x="156" y="711" />
      <point x="256" y="468" />
      <point x="256" y="315" type="qcurve" smooth="yes" />
      <point x="256" y="161" />
      <point x="156" y="-93" />
      <point x="55" y="-208" type="qcurve" />
      <point x="37" y="-189" type="line" />
      <point x="115" y="-59" />
      <point x="173" y="166" />
    </contour>
  </outline>
</glyph>
<glyph name="asterisk" format="2">
  <advance width="400" height="1000" />
  <unicode hex="002A" />
  <outline>
    <contour>
      <point x="201" y="830" type="qcurve" />
      <point x="215" y="830" />
      <point x="235" y="805" />
      <point x="235" y="786" type="qcurve" smooth="yes" />
      <point x="235" y="771" />
      <point x="217" y="671" type="qcurve" smooth="yes" />
      <point x="207" y="612" type="line" />
      <point x="248" y="644" type="line" smooth="yes" />
      <point x="253" y="648" />
      <point x="273" y="663" />
      <point x="281" y="670" />
      <point x="297" y="683" />
      <point x="305" y="688" />
      <point x="318" y="697" />
      <point x="325" y="700" />
      <point x="334" y="705" />
      <point x="340" y="707" />
      <point x="343" y="707" type="qcurve" />
      <point x="358" y="708" />
      <point x="377" y="685" />
      <point x="377" y="668" type="qcurve" smooth="yes" />
      <point x="377" y="639" />
      <point x="327" y="614" />
      <point x="259" y="605" type="qcurve" />
      <point x="211" y="596" type="line" />
      <point x="247" y="558" type="line" smooth="yes" />
      <point x="305" y="499" />
      <point x="315" y="481" type="qcurve" smooth="yes" />
      <point x="323" y="467" />
      <point x="323" y="454" type="qcurve" smooth="yes" />
      <point x="323" y="436" />
      <point x="304" y="412" />
      <point x="290" y="411" type="qcurve" smooth="yes" />
      <point x="270" y="410" />
      <point x="244" y="459" />
      <point x="219" y="533" type="qcurve" smooth="yes" />
      <point x="201" y="588" type="line" />
      <point x="181" y="530" type="line" />
      <point x="157" y="454" />
      <point x="131" y="403" />
      <point x="111" y="402" type="qcurve" />
      <point x="97" y="402" />
      <point x="79" y="424" />
      <point x="79" y="441" type="qcurve" smooth="yes" />
      <point x="79" y="449" />
      <point x="85" y="466" />
      <point x="92" y="479" />
      <point x="108" y="500" />
      <point x="120" y="515" />
      <point x="147" y="544" />
      <point x="155" y="553" type="qcurve" />
      <point x="190" y="595" type="line" />
      <point x="143" y="598" type="line" />
      <point x="72" y="601" />
      <point x="23" y="620" />
      <point x="23" y="648" type="qcurve" smooth="yes" />
      <point x="23" y="666" />
      <point x="43" y="691" />
      <point x="59" y="692" type="qcurve" />
      <point x="63" y="692" />
      <point x="72" y="690" />
      <point x="85" y="684" />
      <point x="95" y="678" />
      <point x="113" y="666" />
      <point x="123" y="660" />
      <point x="147" y="643" />
      <point x="152" y="639" type="qcurve" />
      <point x="194" y="611" type="line" />
      <point x="183" y="669" type="line" smooth="yes" />
      <point x="167" y="759" />
      <point x="167" y="783" type="qcurve" smooth="yes" />
      <point x="167" y="804" />
      <point x="186" y="829" />
    </contour>
  </outline>
</glyph>
<glyph name="plus" format="2">
  <advance width="496" height="1000" />
  <unicode hex="002B" />
  <outline>
    <contour>
      <point x="460" y="402" type="line" />
      <point x="460" y="348" type="line" />
      <point x="272" y="339" type="line" />
      <point x="272" y="88" type="line" />
      <point x="226" y="86" type="line" />
      <point x="226" y="337" type="line" />
      <point x="36" y="327" type="line" />
      <point x="36" y="381" type="line" />
      <point x="226" y="391" type="line" />
      <point x="226" y="636" type="line" />
      <point x="272" y="638" type="line" />
      <point x="272" y="393" type="line" />
    </contour>
  </outline>
</glyph>
<glyph name="comma" format="2">
  <advance width="291" height="1000" />
  <unicode hex="002C" />
  <outline>
    <contour>
      <point x="152" y="-35" type="qcurve" />
      <point x="115" y="-9" type="line" smooth="yes" />
      <point x="75" y="19" />
      <point x="75" y="67" type="qcurve" smooth="yes" />
      <point x="75" y="101" />
      <point x="110" y="147" />
      <point x="138" y="149" type="qcurve" />
      <point x="170" y="150" />
      <point x="193" y="124" type="qcurve" />
      <point x="205" y="89" />
      <point x="205" y="44" type="qcurve" smooth="yes" />
      <point x="205" y="-51" />
      <point x="107" y="-202" />
      <point x="42" y="-236" type="qcurve" />
      <point x="31" y="-208" type="line" />
      <point x="82" y="-171" />
      <point x="139" y="-92" />
    </contour>
  </outline>
</glyph>
<glyph name="hyphen" format="2">
  <advance width="310" height="1000" />
  <unicode hex="002D" />
  <unicode hex="2011" />
  <outline>
    <contour>
      <point x="45" y="243" type="line" />
      <point x="45" y="311" type="line" />
      <point x="267" y="322" type="line" />
      <point x="267" y="254" type="line" />
    </contour>
  </outline>
</glyph>
<glyph name="period" format="2">
  <advance width="302" height="1000" />
  <unicode hex="002E" />
  <outline>
    <contour>
      <point x="152" y="-16" type="qcurve" smooth="yes" />
      <point x="124" y="-17" />
      <point x="85" y="30" />
      <point x="85" y="63" type="qcurve" smooth="yes" />
      <point x="85" y="98" />
      <point x="124" y="149" />
      <point x="152" y="150" type="qcurve" smooth="yes" />
      <point x="179" y="151" />
      <point x="217" y="104" />
      <point x="217" y="69" type="qcurve" smooth="yes" />
      <point x="217" y="36" />
      <point x="179" y="-15" />
    </contour>
  </outline>
</glyph>
<glyph name="slash" format="2">
  <advance width="323" height="1000" />
  <unicode hex="002F" />
  <outline>
    <contour>
      <point x="12" y="-186" type="line" />
      <point x="252" y="798" type="line" />
      <point x="310" y="801" type="line" />
      <point x="72" y="-183" type="line" />
    </contour>
  </outline>
</glyph>
<glyph name="zero" format="2">
  <advance width="485" height="1000" />
  <unicode hex="0030" />
  <outline>
    <contour>
      <point x="147" y="368" type="qcurve" smooth="yes" />
      <point x="147" y="16" />
      <point x="243" y="21" type="qcurve" smooth="yes" />
      <point x="338" y="26" />
      <point x="338" y="378" type="qcurve" smooth="yes" />
      <point x="338" y="724" />
      <point x="243" y="719" type="qcurve" smooth="yes" />
      <point x="147" y="714" />
    </contour>
    <contour>
      <point x="243" y="756" type="qcurve" smooth="yes" />
      <point x="327" y="760" />
      <point x="441" y="575" />
      <point x="441" y="383" type="qcurve" smooth="yes" />
      <point x="441" y="189" />
      <point x="327" y="-12" />
      <point x="243" y="-16" type="qcurve" smooth="yes" />
      <point x="158" y="-20" />
      <point x="45" y="168" />
      <point x="45" y="363" type="qcurve" smooth="yes" />
      <point x="45" y="555" />
      <point x="158" y="752" />
    </contour>
  </outline>
</glyph>
<glyph name="one" format="2">
  <advance width="498" height="1000" />
  <unicode hex="0031" />
  <outline>
    <contour>
      <point x="313" y="52" type="qcurve" />
      <point x="427" y="40" type="line" />
      <point x="427" y="9" type="line" />
      <point x="84" y="-8" type="line" />
      <point x="84" y="23" type="line" />
      <point x="202" y="46" type="line" />
      <point x="205" y="140" />
      <point x="205" y="233" type="qcurve" smooth="yes" />
      <point x="205" y="667" type="line" />
      <point x="101" y="648" type="line" />
      <point x="101" y="685" type="line" />
      <point x="302" y="755" type="line" />
      <point x="314" y="745" type="line" />
      <point x="310" y="584" type="line" />
      <point x="310" y="238" type="line" smooth="yes" />
      <point x="310" y="145" />
    </contour>
  </outline>
</glyph>
<glyph name="two" format="2">
  <advance width="488" height="1000" />
  <unicode hex="0032" />
  <outline>
    <contour>
      <point x="117" y="100" type="qcurve" />
      <point x="441" y="116" type="line" />
      <point x="441" y="10" type="line" />
      <point x="57" y="-9" type="line" />
      <point x="57" y="69" type="line" />
      <point x="135" y="184" />
      <point x="190" y="264" type="qcurve" smooth="yes" />
      <point x="259" y="367" />
      <point x="315" y="494" />
      <point x="315" y="565" type="qcurve" smooth="yes" />
      <point x="315" y="638" />
      <point x="260" y="721" />
      <point x="212" y="718" type="qcurve" smooth="yes" />
      <point x="196" y="717" />
      <point x="174" y="711" type="qcurve" />
      <point x="155" y="618" type="line" />
      <point x="144" y="542" />
      <point x="102" y="540" type="qcurve" smooth="yes" />
      <point x="69" y="538" />
      <point x="54" y="575" type="qcurve" />
      <point x="62" y="657" />
      <point x="170" y="753" />
      <point x="246" y="757" type="qcurve" smooth="yes" />
      <point x="334" y="761" />
      <point x="422" y="658" />
      <point x="422" y="566" type="qcurve" smooth="yes" />
      <point x="422" y="529" />
      <point x="401" y="460" />
      <point x="344" y="373" />
      <point x="279" y="293" />
      <point x="219" y="224" type="qcurve" />
      <point x="193" y="192" />
    </contour>
  </outline>
</glyph>
<glyph name="three" format="2">
  <advance width="486" height="1000" />
  <unicode hex="0033" />
  <outline>
    <contour>
      <point x="182" y="713" type="qcurve" />
      <point x="165" y="627" type="line" />
      <point x="156" y="562" />
      <point x="112" y="560" type="qcurve" smooth="yes" />
      <point x="81" y="558" />
      <point x="69" y="591" type="qcurve" />
      <point x="75" y="669" />
      <point x="172" y="754" />
      <point x="244" y="757" type="qcurve" />
      <point x="330" y="762" />
      <point x="422" y="669" />
      <point x="422" y="589" type="qcurve" smooth="yes" />
      <point x="422" y="520" />
      <point x="352" y="418" />
      <point x="281" y="393" type="qcurve" />
      <point x="440" y="369" />
      <point x="440" y="201" type="qcurve" smooth="yes" />
      <point x="440" y="109" />
      <point x="326" y="-12" />
      <point x="231" y="-16" type="qcurve" smooth="yes" />
      <point x="149" y="-20" />
      <point x="56" y="60" />
      <point x="48" y="141" type="qcurve" />
      <point x="60" y="182" />
      <point x="93" y="184" type="qcurve" smooth="yes" />
      <point x="116" y="185" />
      <point x="141" y="151" />
      <point x="147" y="108" type="qcurve" />
      <point x="161" y="23" type="line" />
      <point x="180" y="18" />
      <point x="200" y="19" type="qcurve" smooth="yes" />
      <point x="263" y="22" />
      <point x="331" y="115" />
      <point x="331" y="196" type="qcurve" smooth="yes" />
      <point x="331" y="281" />
      <point x="264" y="368" />
      <point x="200" y="365" type="qcurve" smooth="yes" />
      <point x="165" y="363" type="line" />
      <point x="165" y="404" type="line" />
      <point x="195" y="406" type="line" smooth="yes" />
      <point x="252" y="409" />
      <point x="318" y="497" />
      <point x="318" y="578" type="qcurve" smooth="yes" />
      <point x="318" y="649" />
      <point x="265" y="721" />
      <point x="216" y="719" type="qcurve" smooth="yes" />
      <point x="198" y="718" />
    </contour>
  </outline>
</glyph>
<glyph name="four" format="2">
  <advance width="479" height="1000" />
  <unicode hex="0034" />
  <outline>
    <contour>
      <point x="77" y="281" type="line" />
      <point x="270" y="291" type="line" />
      <point x="270" y="645" type="line" />
    </contour>
    <contour>
      <point x="455" y="300" type="line" />
      <point x="455" y="213" type="line" />
      <point x="365" y="209" type="line" />
      <point x="365" y="6" type="line" />
      <point x="270" y="1" type="line" />
      <point x="270" y="204" type="line" />
      <point x="34" y="192" type="line" />
      <point x="34" y="264" type="line" />
      <point x="292" y="749" type="line" />
      <point x="365" y="753" type="line" />
      <point x="365" y="296" type="line" />
    </contour>
  </outline>
</glyph>
<glyph name="five" format="2">
  <advance width="484" height="1000" />
  <unicode hex="0035" />
  <outline>
    <contour>
      <point x="146" y="629" type="line" />
      <point x="136" y="428" type="line" />
      <point x="184" y="448" />
      <point x="236" y="451" type="qcurve" smooth="yes" />
      <point x="332" y="456" />
      <point x="444" y="341" />
      <point x="444" y="121" />
      <point x="321" y="-13" />
      <point x="221" y="-18" type="qcurve" smooth="yes" />
      <point x="144" y="-21" />
      <point x="52" y="62" />
      <point x="44" y="141" type="qcurve" />
      <point x="56" y="181" />
      <point x="92" y="183" type="qcurve" smooth="yes" />
      <point x="114" y="184" />
      <point x="138" y="151" />
      <point x="144" y="110" type="qcurve" smooth="yes" />
      <point x="157" y="25" type="line" />
      <point x="179" y="17" />
      <point x="205" y="19" type="qcurve" smooth="yes" />
      <point x="264" y="22" />
      <point x="332" y="127" />
      <point x="332" y="218" type="qcurve" smooth="yes" />
      <point x="332" y="305" />
      <point x="264" y="399" />
      <point x="205" y="396" type="qcurve" smooth="yes" />
      <point x="162" y="393" />
      <point x="119" y="374" type="qcurve" />
      <point x="96" y="387" type="line" />
      <point x="115" y="735" type="line" />
      <point x="424" y="751" type="line" />
      <point x="424" y="643" type="line" />
    </contour>
  </outline>
</glyph>
<glyph name="six" format="2">
  <advance width="483" height="1000" />
  <unicode hex="0036" />
  <outline>
    <contour>
      <point x="249" y="22" type="qcurve" smooth="yes" />
      <point x="289" y="24" />
      <point x="337" y="122" />
      <point x="337" y="219" type="qcurve" smooth="yes" />
      <point x="337" y="310" />
      <point x="289" y="401" />
      <point x="244" y="399" type="qcurve" smooth="yes" />
      <point x="187" y="396" />
      <point x="148" y="348" type="qcurve" />
      <point x="147" y="336" />
      <point x="147" y="313" type="qcurve" smooth="yes" />
      <point x="147" y="165" />
      <point x="200" y="19" />
    </contour>
    <contour>
      <point x="408" y="766" type="qcurve" />
      <point x="412" y="741" type="line" />
      <point x="296" y="701" />
      <point x="164" y="519" />
      <point x="150" y="384" type="qcurve" />
      <point x="204" y="453" />
      <point x="281" y="456" type="qcurve" />
      <point x="356" y="460" />
      <point x="443" y="343" />
      <point x="443" y="242" type="qcurve" smooth="yes" />
      <point x="443" y="130" />
      <point x="336" y="-11" />
      <point x="248" y="-15" type="qcurve" smooth="yes" />
      <point x="152" y="-20" />
      <point x="40" y="142" />
      <point x="40" y="288" type="qcurve" smooth="yes" />
      <point x="40" y="467" />
      <point x="242" y="737" />
    </contour>
  </outline>
</glyph>
<glyph name="seven" format="2">
  <advance width="490" height="1000" />
  <unicode hex="0037" />
  <outline>
    <contour>
      <point x="56" y="733" type="line" />
      <point x="428" y="751" type="line" />
      <point x="428" y="684" type="line" />
      <point x="219" y="-1" type="line" />
      <point x="131" y="-5" type="line" />
      <point x="123" y="4" type="line" />
      <point x="377" y="641" type="line" />
      <point x="56" y="625" type="line" />
    </contour>
  </outline>
</glyph>
<glyph name="eight" format="2">
  <advance width="487" height="1000" />
  <unicode hex="0038" />
  <outline>
    <contour>
      <point x="244" y="21" type="qcurve" smooth="yes" />
      <point x="289" y="23" />
      <point x="341" y="94" />
      <point x="341" y="210" />
      <point x="279" y="296" />
      <point x="201" y="335" type="qcurve" />
      <point x="169" y="297" />
      <point x="140" y="222" />
      <point x="140" y="170" type="qcurve" smooth="yes" />
      <point x="140" y="96" />
      <point x="195" y="18" />
    </contour>
    <contour>
      <point x="245" y="720" type="qcurve" smooth="yes" />
      <point x="207" y="718" />
      <point x="155" y="651" />
      <point x="155" y="545" />
      <point x="209" y="459" />
      <point x="279" y="423" type="qcurve" />
      <point x="330" y="493" />
      <point x="330" y="593" type="qcurve" smooth="yes" />
      <point x="330" y="651" />
      <point x="285" y="722" />
    </contour>
    <contour>
      <point x="300" y="412" type="qcurve" />
      <point x="371" y="373" />
      <point x="437" y="270" />
      <point x="437" y="199" type="qcurve" smooth="yes" />
      <point x="437" y="105" />
      <point x="330" y="-12" />
      <point x="237" y="-17" type="qcurve" smooth="yes" />
      <point x="148" y="-21" />
      <point x="50" y="70" />
      <point x="50" y="150" type="qcurve" smooth="yes" />
      <point x="50" y="274" />
      <point x="182" y="346" type="qcurve" />
      <point x="65" y="413" />
      <point x="65" y="554" type="qcurve" smooth="yes" />
      <point x="65" y="641" />
      <point x="169" y="753" />
      <point x="247" y="757" type="qcurve" smooth="yes" />
      <point x="327" y="761" />
      <point x="415" y="668" />
      <point x="415" y="593" type="qcurve" smooth="yes" />
      <point x="415" y="485" />
    </contour>
  </outline>
</glyph>
<glyph name="nine" format="2">
  <advance width="483" height="1000" />
  <unicode hex="0039" />
  <outline>
    <contour>
      <point x="252" y="341" type="qcurve" smooth="yes" />
      <point x="296" y="343" />
      <point x="328" y="378" type="qcurve" />
      <point x="332" y="414" />
      <point x="332" y="463" type="qcurve" smooth="yes" />
      <point x="332" y="724" />
      <point x="236" y="719" type="qcurve" smooth="yes" />
      <point x="195" y="717" />
      <point x="143" y="617" />
      <point x="143" y="523" type="qcurve" smooth="yes" />
      <point x="143" y="434" />
      <point x="202" y="338" />
    </contour>
    <contour>
      <point x="92" y="-28" type="qcurve" />
      <point x="86" y="2" type="line" />
      <point x="192" y="52" />
      <point x="307" y="218" />
      <point x="324" y="342" type="qcurve" />
      <point x="280" y="293" />
      <point x="212" y="290" type="qcurve" smooth="yes" />
      <point x="136" y="286" />
      <point x="36" y="400" />
      <point x="37" y="502" type="qcurve" />
      <point x="37" y="615" />
      <point x="150" y="752" />
      <point x="236" y="756" type="qcurve" smooth="yes" />
      <point x="332" y="761" />
      <point x="440" y="602" />
      <point x="440" y="458" type="qcurve" smooth="yes" />
      <point x="440" y="283" />
      <point x="256" y="22" />
    </contour>
  </outline>
</glyph>
<glyph name="colon" format="2">
  <advance width="302" height="1000" />
  <unicode hex="003A" />
  <outline>
    <contour>
      <point x="152" y="389" type="qcurve" smooth="yes" />
      <point x="124" y="388" />
      <point x="85" y="434" />
      <point x="85" y="467" type="qcurve" smooth="yes" />
      <point x="85" y="502" />
      <point x="124" y="553" />
      <point x="152" y="554" type="qcurve" smooth="yes" />
      <point x="179" y="555" />
      <point x="217" y="508" />
      <point x="217" y="473" type="qcurve" smooth="yes" />
      <point x="217" y="440" />
      <point x="179" y="390" />
    </contour>
    <contour>
      <point x="152" y="-16" type="qcurve" smooth="yes" />
      <point x="124" y="-17" />
      <point x="85" y="30" />
      <point x="85" y="63" type="qcurve" smooth="yes" />
      <point x="85" y="98" />
      <point x="124" y="149" />
      <point x="152" y="150" type="qcurve" smooth="yes" />
      <point x="179" y="151" />
      <point x="217" y="104" />
      <point x="217" y="69" type="qcurve" smooth="yes" />
      <point x="217" y="36" />
      <point x="179" y="-15" />
    </contour>
  </outline>
</glyph>
<glyph name="semicolon" format="2">
  <advance width="292" height="1000" />
  <unicode hex="003B" />
  <outline>
    <contour>
      <point x="140" y="389" type="qcurve" />
      <point x="112" y="388" />
      <point x="74" y="434" />
      <point x="74" y="467" type="qcurve" smooth="yes" />
      <point x="74" y="502" />
      <point x="112" y="553" />
      <point x="140" y="554" type="qcurve" />
      <point x="167" y="556" />
      <point x="206" y="509" />
      <point x="206" y="474" type="qcurve" smooth="yes" />
      <point x="206" y="441" />
      <point x="167" y="391" />
    </contour>
    <contour>
      <point x="151" y="-34" type="qcurve" />
      <point x="115" y="-8" type="line" />
      <point x="74" y="20" />
      <point x="74" y="68" type="qcurve" smooth="yes" />
      <point x="74" y="102" />
      <point x="109" y="149" />
      <point x="137" y="150" type="qcurve" />
      <point x="169" y="152" />
      <point x="192" y="125" type="qcurve" />
      <point x="204" y="91" />
      <point x="204" y="46" type="qcurve" smooth="yes" />
      <point x="204" y="-49" />
      <point x="107" y="-200" />
      <point x="41" y="-234" type="qcurve" />
      <point x="31" y="-206" type="line" />
      <point x="81" y="-169" />
      <point x="139" y="-91" />
    </contour>
  </outline>
</glyph>
<glyph name="less" format="2">
  <advance width="505" height="1000" />
  <unicode hex="003C" />
  <outline>
    <contour>
      <point x="440" y="599" type="line" />
      <point x="101" y="359" type="line" />
      <point x="440" y="152" type="line" />
      <point x="420" y="104" type="line" />
      <point x="52" y="337" type="line" />
      <point x="52" y="376" type="line" />
      <point x="420" y="645" type="line" />
    </contour>
  </outline>
</glyph>
<glyph name="equal" format="2">
  <advance width="496" height="1000" />
  <unicode hex="003D" />
  <outline>
    <contour>
      <point x="460" y="234" type="line" />
      <point x="36" y="213" type="line" />
      <point x="36" y="267" type="line" />
      <point x="460" y="288" type="line" />
    </contour>
    <contour>
      <point x="460" y="465" type="line" />
      <point x="36" y="444" type="line" />
      <point x="36" y="497" type="line" />
      <point x="460" y="518" type="line" />
    </contour>
  </outline>
</glyph>
<glyph name="greater" format="2">
  <advance width="505" height="1000" />
  <unicode hex="003E" />
  <outline>
    <contour>
      <point x="85" y="628" type="line" />
      <point x="453" y="394" type="line" />
      <point x="453" y="355" type="line" />
      <point x="85" y="87" type="line" />
      <point x="65" y="133" type="line" />
      <point x="405" y="373" type="line" />
      <point x="65" y="580" type="line" />
    </contour>
  </outline>
</glyph>
<glyph name="question" format="2">
  <advance width="409" height="1000" />
  <unicode hex="003F" />
  <outline>
    <contour>
      <point x="113" y="121" type="qcurve" smooth="yes" />
      <point x="133" y="146" />
      <point x="189" y="149" />
      <point x="226" y="103" />
      <point x="226" y="33" />
      <point x="189" y="-17" />
      <point x="133" y="-20" />
      <point x="93" y="26" />
      <point x="93" y="96" />
    </contour>
    <contour>
      <point x="290" y="605" type="qcurve" />
      <point x="149" y="625" type="line" smooth="yes" />
      <point x="85" y="634" />
      <point x="85" y="689" type="qcurve" smooth="yes" />
      <point x="85" y="741" />
      <point x="133" y="758" type="qcurve" />
      <point x="166" y="751" />
      <point x="236" y="714" />
      <point x="302" y="658" />
      <point x="345" y="575" />
      <point x="345" y="526" type="qcurve" smooth="yes" />
      <point x="345" y="416" />
      <point x="259" y="368" type="qcurve" />
      <point x="223" y="350" type="line" />
      <point x="195" y="332" />
      <point x="177" y="309" />
      <point x="176" y="286" type="qcurve" smooth="yes" />
      <point x="175" y="237" type="line" />
      <point x="149" y="236" type="line" />
      <point x="139" y="276" type="line" smooth="yes" />
      <point x="125" y="338" />
      <point x="125" y="355" type="qcurve" smooth="yes" />
      <point x="125" y="385" />
      <point x="155" y="424" />
      <point x="193" y="445" type="qcurve" />
      <point x="242" y="469" type="line" />
      <point x="277" y="489" />
      <point x="303" y="525" />
      <point x="302" y="554" type="qcurve" />
      <point x="302" y="581" />
    </contour>
  </outline>
</glyph>
<glyph name="at" format="2">
  <advance width="789" height="1000" />
  <unicode hex="0040" />
  <outline>
    <contour>
      <point x="434" y="484" type="qcurve" />
      <point x="396" y="483" />
      <point x="334" y="391" />
      <point x="302" y="271" />
      <point x="302" y="215" type="qcurve" smooth="yes" />
      <point x="302" y="163" />
      <point x="334" y="109" />
      <point x="362" y="111" type="qcurve" smooth="yes" />
      <point x="398" y="113" />
      <point x="438" y="170" type="qcurve" />
      <point x="478" y="455" type="line" />
      <point x="462" y="486" />
    </contour>
    <contour>
      <point x="220" y="193" type="qcurve" smooth="yes" />
      <point x="220" y="311" />
      <point x="347" y="530" />
      <point x="428" y="534" type="qcurve" smooth="yes" />
      <point x="468" y="536" />
      <point x="491" y="492" type="qcurve" />
      <point x="559" y="540" type="line" />
      <point x="571" y="529" type="line" />
      <point x="522" y="200" type="line" />
      <point x="514" y="140" />
      <point x="533" y="91" />
      <point x="562" y="93" type="qcurve" smooth="yes" />
      <point x="617" y="96" />
      <point x="711" y="258" />
      <point x="711" y="387" type="qcurve" smooth="yes" />
      <point x="711" y="532" />
      <point x="561" y="704" />
      <point x="445" y="698" type="qcurve" smooth="yes" />
      <point x="342" y="693" />
      <point x="173" y="556" />
      <point x="81" y="342" />
      <point x="81" y="219" type="qcurve" smooth="yes" />
      <point x="81" y="43" />
      <point x="249" y="-147" />
      <point x="378" y="-140" type="qcurve" />
      <point x="473" y="-136" />
      <point x="550" y="-82" type="qcurve" />
      <point x="560" y="-108" type="line" />
      <point x="474" y="-171" />
      <point x="369" y="-176" type="qcurve" smooth="yes" />
      <point x="225" y="-183" />
      <point x="42" y="17" />
      <point x="42" y="209" type="qcurve" smooth="yes" />
      <point x="42" y="422" />
      <point x="276" y="725" />
      <point x="451" y="733" type="qcurve" smooth="yes" />
      <point x="586" y="740" />
      <point x="747" y="545" />
      <point x="747" y="382" type="qcurve" smooth="yes" />
      <point x="747" y="306" />
      <point x="710" y="178" />
      <point x="650" y="100" />
      <point x="582" y="57" />
      <point x="549" y="55" type="qcurve" smooth="yes" />
      <point x="461" y="51" />
      <point x="443" y="143" type="qcurve" />
      <point x="394" y="47" />
      <point x="321" y="44" type="qcurve" smooth="yes" />
      <point x="275" y="42" />
      <point x="220" y="116" />
    </contour>
  </outline>
</glyph>
<glyph name="C" format="2">
  <advance width="578" height="1000" />
  <unicode hex="0043" />
  <outline>
    <contour>
      <point x="535" y="222" type="line" />
      <point x="536" y="50" type="line" />
      <point x="455" y="-11" />
      <point x="357" y="-16" type="qcurve" smooth="yes" />
      <point x="220" y="-22" />
      <point x="48" y="177" />
      <point x="48" y="359" type="qcurve" smooth="yes" />
      <point x="48" y="540" />
      <point x="227" y="757" />
      <point x="360" y="764" type="qcurve" smooth="yes" />
      <point x="450" y="768" />
      <point x="529" y="716" type="qcurve" />
      <point x="528" y="543" type="line" />
      <point x="482" y="541" type="line" />
      <point x="447" y="710" type="line" />
      <point x="414" y="725" />
      <point x="375" y="723" type="qcurve" smooth="yes" />
      <point x="282" y="719" />
      <point x="167" y="533" />
      <point x="167" y="364" type="qcurve" smooth="yes" />
      <point x="167" y="193" />
      <point x="281" y="22" />
      <point x="375" y="26" type="qcurve" smooth="yes" />
      <point x="415" y="28" />
      <point x="453" y="49" type="qcurve" />
      <point x="488" y="220" type="line" />
    </contour>
  </outline>
</glyph>
<glyph name="F" format="2">
  <advance width="534" height="1000" />
  <unicode hex="0046" />
  <outline>
    <contour>
      <point x="423" y="708" type="line" />
      <point x="236" y="699" type="line" />
      <point x="233" y="601" />
      <point x="233" y="396" type="qcurve" />
      <point x="356" y="402" type="line" />
      <point x="368" y="512" type="line" />
      <point x="405" y="514" type="line" />
      <point x="405" y="254" type="line" />
      <point x="368" y="252" type="line" />
      <point x="356" y="364" type="line" />
      <point x="233" y="358" type="line" />
      <point x="233" y="144" />
      <point x="236" y="44" type="qcurve" />
      <point x="321" y="38" type="line" />
      <point x="321" y="3" type="line" />
      <point x="45" y="-10" type="line" />
      <point x="45" y="25" type="line" />
      <point x="121" y="37" type="line" />
      <point x="122" y="136" />
      <point x="122" y="339" type="qcurve" smooth="yes" />
      <point x="122" y="388" type="line" smooth="yes" />
      <point x="122" y="589" />
      <point x="121" y="690" type="qcurve" />
      <point x="45" y="696" type="line" />
      <point x="45" y="732" type="line" />
      <point x="496" y="754" type="line" />
      <point x="497" y="558" type="line" />
      <point x="453" y="556" type="line" />
    </contour>
  </outline>
</glyph>
<glyph name="G" format="2">
  <advance width="618" height="1000" />
  <unicode hex="0047" />
  <outline>
    <contour>
      <point x="604" y="375" type="line" />
      <point x="604" y="340" type="line" />
      <point x="551" y="329" type="line" />
      <point x="549" y="189" />
      <point x="549" y="108" type="qcurve" smooth="yes" />
      <point x="549" y="59" type="line" />
      <point x="457" y="-11" />
      <point x="356" y="-17" type="qcurve" />
      <point x="217" y="-23" />
      <point x="48" y="181" />
      <point x="48" y="359" type="qcurve" smooth="yes" />
      <point x="48" y="534" />
      <point x="220" y="756" />
      <point x="360" y="763" type="qcurve" smooth="yes" />
      <point x="459" y="768" />
      <point x="535" y="716" type="qcurve" />
      <point x="533" y="543" type="line" />
      <point x="486" y="541" type="line" />
      <point x="452" y="705" type="line" />
      <point x="419" y="725" />
      <point x="375" y="722" type="qcurve" />
      <point x="281" y="718" />
      <point x="167" y="531" />
      <point x="167" y="364" type="qcurve" smooth="yes" />
      <point x="167" y="203" />
      <point x="280" y="21" />
      <point x="370" y="25" type="qcurve" smooth="yes" />
      <point x="408" y="27" />
      <point x="443" y="41" type="qcurve" />
      <point x="443" y="106" type="line" smooth="yes" />
      <point x="443" y="213" />
      <point x="440" y="321" type="qcurve" />
      <point x="352" y="327" type="line" />
      <point x="352" y="362" type="line" />
    </contour>
  </outline>
</glyph>
<glyph name="H" format="2">
  <advance width="712" height="1000" />
  <unicode hex="0048" />
  <outline>
    <contour>
      <point x="667" y="722" type="line" />
      <point x="591" y="709" type="line" />
      <point x="590" y="609" />
      <point x="590" y="407" type="qcurve" smooth="yes" />
      <point x="590" y="358" type="line" smooth="yes" />
      <point x="590" y="156" />
      <point x="591" y="56" type="qcurve" />
      <point x="667" y="51" type="line" />
      <point x="667" y="16" type="line" />
      <point x="403" y="2" type="line" />
      <point x="403" y="37" type="line" />
      <point x="476" y="49" type="line" />
      <point x="478" y="148" />
      <point x="478" y="366" type="qcurve" />
      <point x="233" y="354" type="line" />
      <point x="233" y="137" />
      <point x="235" y="37" type="qcurve" />
      <point x="308" y="33" type="line" />
      <point x="308" y="-2" type="line" />
      <point x="45" y="-15" type="line" />
      <point x="45" y="20" type="line" />
      <point x="121" y="32" type="line" />
      <point x="122" y="131" />
      <point x="122" y="334" type="qcurve" smooth="yes" />
      <point x="122" y="383" type="line" smooth="yes" />
      <point x="122" y="584" />
      <point x="121" y="684" type="qcurve" />
      <point x="45" y="691" type="line" />
      <point x="45" y="727" type="line" />
      <point x="308" y="740" type="line" />
      <point x="308" y="704" type="line" />
      <point x="235" y="691" type="line" />
      <point x="233" y="593" />
      <point x="233" y="393" type="qcurve" />
      <point x="478" y="405" type="line" />
      <point x="478" y="604" />
      <point x="476" y="703" type="qcurve" />
      <point x="403" y="708" type="line" />
      <point x="403" y="744" type="line" />
      <point x="667" y="758" type="line" />
    </contour>
  </outline>
</glyph>
<glyph name="J" format="2">
  <advance width="334" height="1000" />
  <unicode hex="004A" />
  <outline>
    <contour>
      <point x="300" y="748" type="line" />
      <point x="300" y="712" type="line" />
      <point x="223" y="699" type="line" />
      <point x="222" y="601" />
      <point x="222" y="402" type="qcurve" smooth="yes" />
      <point x="222" y="261" type="line" smooth="yes" />
      <point x="222" y="76" />
      <point x="195" y="-10" type="qcurve" />
      <point x="177" y="-92" />
      <point x="79" y="-189" />
      <point x="17" y="-192" type="qcurve" smooth="yes" />
      <point x="-53" y="-195" />
      <point x="-74" y="-140" type="qcurve" />
      <point x="-71" y="-108" />
      <point x="-38" y="-72" />
      <point x="-14" y="-71" type="qcurve" smooth="yes" />
      <point x="19" y="-69" />
      <point x="54" y="-115" type="qcurve" smooth="yes" />
      <point x="78" y="-147" type="line" />
      <point x="114" y="-96" />
      <point x="114" y="46" type="qcurve" smooth="yes" />
      <point x="114" y="79" />
      <point x="113" y="218" />
      <point x="110" y="514" />
      <point x="108" y="693" type="qcurve" />
      <point x="24" y="698" type="line" />
      <point x="24" y="734" type="line" />
    </contour>
  </outline>
</glyph>
<glyph name="K" format="2">
  <advance width="619" height="1000" />
  <unicode hex="004B" />
  <outline>
    <contour>
      <point x="563" y="55" type="line" />
      <point x="623" y="51" type="line" />
      <point x="623" y="16" type="line" />
      <point x="378" y="4" type="line" />
      <point x="378" y="39" type="line" />
      <point x="442" y="50" type="line" />
      <point x="300" y="376" type="line" />
      <point x="230" y="265" type="line" />
      <point x="230" y="120" />
      <point x="231" y="40" type="qcurve" />
      <point x="302" y="35" type="line" />
      <point x="302" y="0" type="line" />
      <point x="45" y="-13" type="line" />
      <point x="45" y="22" type="line" />
      <point x="121" y="35" type="line" />
      <point x="122" y="134" />
      <point x="122" y="337" type="qcurve" smooth="yes" />
      <point x="122" y="386" type="line" smooth="yes" />
      <point x="122" y="587" />
      <point x="121" y="688" type="qcurve" />
      <point x="45" y="693" type="line" />
      <point x="45" y="729" type="line" />
      <point x="308" y="742" type="line" />
      <point x="308" y="706" type="line" />
      <point x="231" y="692" type="line" />
      <point x="230" y="593" />
      <point x="230" y="391" type="qcurve" smooth="yes" />
      <point x="230" y="320" type="line" />
      <point x="463" y="700" type="line" />
      <point x="386" y="710" type="line" />
      <point x="386" y="746" type="line" />
      <point x="592" y="756" type="line" />
      <point x="592" y="720" type="line" />
      <point x="509" y="702" type="line" />
      <point x="370" y="485" type="line" />
    </contour>
  </outline>
</glyph>
<glyph name="L" format="2">
  <advance width="536" height="1000" />
  <unicode hex="004C" />
  <outline>
    <contour>
      <point x="453" y="226" type="line" />
      <point x="496" y="228" type="line" />
      <point x="494" y="12" type="line" />
      <point x="45" y="-10" type="line" />
      <point x="46" y="25" type="line" />
      <point x="121" y="37" type="line" />
      <point x="122" y="136" />
      <point x="122" y="321" type="qcurve" smooth="yes" />
      <point x="122" y="388" type="line" smooth="yes" />
      <point x="122" y="589" />
      <point x="121" y="690" type="qcurve" />
      <point x="45" y="696" type="line" />
      <point x="45" y="732" type="line" />
      <point x="316" y="745" type="line" />
      <point x="316" y="709" type="line" />
      <point x="236" y="695" type="line" />
      <point x="234" y="596" />
      <point x="234" y="402" type="qcurve" smooth="yes" />
      <point x="234" y="335" type="line" smooth="yes" />
      <point x="234" y="141" />
      <point x="236" y="40" type="qcurve" />
      <point x="418" y="49" type="line" />
    </contour>
  </outline>
</glyph>
<glyph name="P" format="2">
  <advance width="552" height="1000" />
  <unicode hex="0050" />
  <outline>
    <contour>
      <point x="279" y="703" type="qcurve" smooth="yes" />
      <point x="236" y="701" type="line" />
      <point x="234" y="600" />
      <point x="234" y="393" type="qcurve" smooth="yes" />
      <point x="234" y="334" type="line" />
      <point x="273" y="336" type="line" smooth="yes" />
      <point x="346" y="340" />
      <point x="417" y="443" />
      <point x="417" y="529" type="qcurve" smooth="yes" />
      <point x="417" y="710" />
    </contour>
    <contour>
      <point x="272" y="297" type="qcurve" smooth="yes" />
      <point x="234" y="295" type="line" />
      <point x="234" y="131" />
      <point x="236" y="43" type="qcurve" />
      <point x="322" y="37" type="line" />
      <point x="322" y="2" type="line" />
      <point x="45" y="-11" type="line" />
      <point x="45" y="24" type="line" />
      <point x="121" y="36" type="line" />
      <point x="123" y="135" />
      <point x="123" y="338" type="qcurve" smooth="yes" />
      <point x="123" y="387" type="line" smooth="yes" />
      <point x="123" y="588" />
      <point x="121" y="689" type="qcurve" />
      <point x="45" y="695" type="line" />
      <point x="45" y="731" type="line" />
      <point x="284" y="742" type="line" smooth="yes" />
      <point x="524" y="754" />
      <point x="524" y="534" type="qcurve" smooth="yes" />
      <point x="524" y="433" />
      <point x="402" y="303" />
    </contour>
  </outline>
</glyph>
<glyph name="Q" format="2">
  <advance width="648" height="1000" />
  <unicode hex="0051" />
  <outline>
    <contour>
      <point x="167" y="364" type="qcurve" smooth="yes" />
      <point x="167" y="209" />
      <point x="247" y="19" />
      <point x="400" y="26" />
      <point x="481" y="225" />
      <point x="481" y="379" type="qcurve" smooth="yes" />
      <point x="481" y="531" />
      <point x="400" y="723" />
      <point x="247" y="716" />
      <point x="167" y="517" />
    </contour>
    <contour>
      <point x="555" y="-153" type="qcurve" />
      <point x="564" y="-181" type="line" />
      <point x="520" y="-220" />
      <point x="452" y="-223" type="qcurve" smooth="yes" />
      <point x="366" y="-227" />
      <point x="269" y="-110" />
      <point x="267" y="-14" type="qcurve" />
      <point x="171" y="6" />
      <point x="47" y="199" />
      <point x="47" y="358" type="qcurve" smooth="yes" />
      <point x="47" y="538" />
      <point x="209" y="755" />
      <point x="324" y="760" type="qcurve" smooth="yes" />
      <point x="439" y="766" />
      <point x="600" y="567" />
      <point x="600" y="385" type="qcurve" smooth="yes" />
      <point x="600" y="225" />
      <point x="471" y="16" />
      <point x="372" y="-11" type="qcurve" />
      <point x="372" y="-88" />
      <point x="436" y="-175" />
      <point x="491" y="-172" type="qcurve" smooth="yes" />
      <point x="521" y="-171" />
    </contour>
  </outline>
</glyph>
<glyph name="R" format="2">
  <advance width="608" height="1000" />
  <unicode hex="0052" />
  <outline>
    <contour>
      <point x="231" y="383" type="qcurve" />
      <point x="290" y="386" type="line" smooth="yes" />
      <point x="355" y="389" />
      <point x="421" y="483" />
      <point x="421" y="631" />
      <point x="355" y="706" />
      <point x="292" y="703" type="qcurve" smooth="yes" />
      <point x="234" y="700" type="line" />
      <point x="231" y="599" />
    </contour>
    <contour>
      <point x="527" y="54" type="line" />
      <point x="598" y="50" type="line" />
      <point x="598" y="15" type="line" />
      <point x="561" y="0" />
      <point x="514" y="-2" type="qcurve" smooth="yes" />
      <point x="464" y="-4" />
      <point x="413" y="34" />
      <point x="406" y="84" type="qcurve" />
      <point x="378" y="236" type="line" smooth="yes" />
      <point x="367" y="300" />
      <point x="323" y="350" />
      <point x="275" y="348" type="qcurve" smooth="yes" />
      <point x="231" y="346" type="line" />
      <point x="231" y="140" />
      <point x="234" y="41" type="qcurve" />
      <point x="311" y="36" type="line" />
      <point x="311" y="1" type="line" />
      <point x="44" y="-12" type="line" />
      <point x="44" y="23" type="line" />
      <point x="120" y="35" type="line" />
      <point x="122" y="134" />
      <point x="122" y="337" type="qcurve" smooth="yes" />
      <point x="122" y="386" type="line" smooth="yes" />
      <point x="122" y="587" />
      <point x="120" y="688" type="qcurve" />
      <point x="44" y="694" type="line" />
      <point x="44" y="730" type="line" />
      <point x="314" y="743" type="line" smooth="yes" />
      <point x="417" y="748" />
      <point x="528" y="654" />
      <point x="528" y="564" type="qcurve" smooth="yes" />
      <point x="528" y="496" />
      <point x="447" y="391" />
      <point x="364" y="371" type="qcurve" />
      <point x="426" y="363" />
      <point x="482" y="293" />
      <point x="494" y="220" type="qcurve" />
    </contour>
  </outline>
</glyph>
<glyph name="S" format="2">
  <advance width="492" height="1000" />
  <unicode hex="0053" />
  <outline>
    <contour>
      <point x="250" y="452" type="qcurve" smooth="yes" />
      <point x="290" y="433" type="line" smooth="yes" />
      <point x="379" y="389" />
      <point x="451" y="290" />
      <point x="451" y="209" type="qcurve" smooth="yes" />
      <point x="451" y="110" />
      <point x="333" y="-15" />
      <point x="230" y="-20" type="qcurve" smooth="yes" />
      <point x="124" y="-25" />
      <point x="50" y="30" type="qcurve" />
      <point x="55" y="196" type="line" />
      <point x="100" y="198" type="line" />
      <point x="134" y="39" type="line" />
      <point x="170" y="21" />
      <point x="220" y="23" type="qcurve" smooth="yes" />
      <point x="282" y="26" />
      <point x="351" y="99" />
      <point x="351" y="161" type="qcurve" smooth="yes" />
      <point x="351" y="213" />
      <point x="307" y="273" />
      <point x="254" y="298" type="qcurve" smooth="yes" />
      <point x="217" y="316" type="line" smooth="yes" />
      <point x="137" y="356" />
      <point x="58" y="460" />
      <point x="58" y="543" type="qcurve" smooth="yes" />
      <point x="58" y="640" />
      <point x="173" y="756" />
      <point x="266" y="761" type="qcurve" smooth="yes" />
      <point x="352" y="765" />
      <point x="421" y="712" type="qcurve" />
      <point x="415" y="555" type="line" />
      <point x="370" y="553" type="line" />
      <point x="337" y="705" type="line" />
      <point x="312" y="719" />
      <point x="277" y="717" type="qcurve" smooth="yes" />
      <point x="223" y="714" />
      <point x="158" y="646" />
      <point x="158" y="588" type="qcurve" smooth="yes" />
      <point x="158" y="538" />
      <point x="203" y="474" />
    </contour>
  </outline>
</glyph>
<glyph name="V" format="2">
  <advance width="593" height="1000" />
  <unicode hex="0056" />
  <outline>
    <contour>
      <point x="587" y="757" type="line" />
      <point x="587" y="724" type="line" />
      <point x="516" y="705" type="line" />
      <point x="329" y="-2" type="line" />
      <point x="271" y="-5" type="line" />
      <point x="68" y="687" type="line" />
      <point x="8" y="692" type="line" />
      <point x="8" y="728" type="line" />
      <point x="272" y="741" type="line" />
      <point x="272" y="706" type="line" />
      <point x="188" y="691" type="line" />
      <point x="337" y="147" type="line" />
      <point x="472" y="702" type="line" />
      <point x="389" y="712" type="line" />
      <point x="389" y="747" type="line" />
    </contour>
  </outline>
</glyph>
<glyph name="W" format="2">
  <advance width="875" height="1000" />
  <unicode hex="0057" />
  <outline>
    <contour>
      <point x="863" y="763" type="line" />
      <point x="863" y="727" type="line" />
      <point x="788" y="711" type="line" />
      <point x="632" y="6" type="line" />
      <point x="574" y="3" type="line" />
      <point x="432" y="567" type="line" />
      <point x="294" y="-11" type="line" />
      <point x="236" y="-14" type="line" />
      <point x="73" y="680" type="line" />
      <point x="11" y="685" type="line" />
      <point x="11" y="721" type="line" />
      <point x="266" y="734" type="line" />
      <point x="266" y="698" type="line" />
      <point x="189" y="684" type="line" />
      <point x="301" y="156" type="line" />
      <point x="427" y="694" type="line" />
      <point x="347" y="702" type="line" />
      <point x="347" y="738" type="line" />
      <point x="597" y="750" type="line" />
      <point x="597" y="714" type="line" />
      <point x="510" y="698" type="line" />
      <point x="635" y="169" type="line" />
      <point x="746" y="709" type="line" />
      <point x="669" y="718" type="line" />
      <point x="669" y="754" type="line" />
    </contour>
  </outline>
</glyph>
<glyph name="bracketleft" format="2">
  <advance width="325" height="1000" />
  <unicode hex="005B" />
  <outline>
    <contour>
      <point x="296" y="767" type="line" />
      <point x="198" y="750" type="line" />
      <point x="196" y="650" />
      <point x="196" y="446" type="qcurve" smooth="yes" />
      <point x="196" y="177" type="line" smooth="yes" />
      <point x="196" y="-25" />
      <point x="198" y="-127" type="qcurve" />
      <point x="296" y="-134" type="line" />
      <point x="296" y="-172" type="line" />
      <point x="112" y="-181" type="line" />
      <point x="115" y="-66" />
      <point x="115" y="173" type="qcurve" smooth="yes" />
      <point x="115" y="442" type="line" smooth="yes" />
      <point x="115" y="678" />
      <point x="112" y="796" type="qcurve" />
      <point x="296" y="805" type="line" />
    </contour>
  </outline>
</glyph>
<glyph name="backslash" format="2">
  <advance width="324" height="1000" />
  <unicode hex="005C" />
  <outline>
    <contour>
      <point x="310" y="-172" type="line" />
      <point x="251" y="-174" type="line" />
      <point x="12" y="786" type="line" />
      <point x="71" y="789" type="line" />
    </contour>
  </outline>
</glyph>
<glyph name="bracketright" format="2">
  <advance width="325" height="1000" />
  <unicode hex="005D" />
  <outline>
    <contour>
      <point x="210" y="448" type="qcurve" smooth="yes" />
      <point x="210" y="179" type="line" smooth="yes" />
      <point x="210" y="-57" />
      <point x="213" y="-175" type="qcurve" />
      <point x="29" y="-184" type="line" />
      <point x="29" y="-146" type="line" />
      <point x="127" y="-129" type="line" />
      <point x="129" y="-29" />
      <point x="129" y="175" type="qcurve" smooth="yes" />
      <point x="129" y="444" type="line" smooth="yes" />
      <point x="129" y="646" />
      <point x="127" y="748" type="qcurve" />
      <point x="29" y="755" type="line" />
      <point x="29" y="793" type="line" />
      <point x="213" y="802" type="line" />
      <point x="210" y="687" />
    </contour>
  </outline>
</glyph>
<glyph name="asciicircum" format="2">
  <advance width="516" height="1000" />
  <unicode hex="005E" />
  <outline>
    <contour>
      <point x="429" y="261" type="line" />
      <point x="395" y="229" type="line" />
      <point x="258" y="495" type="line" />
      <point x="123" y="216" type="line" />
      <point x="88" y="244" type="line" />
      <point x="238" y="554" type="line" />
      <point x="278" y="556" type="line" />
    </contour>
  </outline>
</glyph>
<glyph name="underscore" format="2">
  <advance width="490" height="1000" />
  <unicode hex="005F" />
  <outline>
    <contour>
      <point x="45" y="-88" type="line" />
      <point x="45" y="-20" type="line" />
      <point x="445" y="0" type="line" />
      <point x="445" y="-68" type="line" />
    </contour>
  </outline>
</glyph>
<glyph name="grave" format="2">
  <advance width="405" height="1000" />
  <unicode hex="0060" />
  <outline>
    <contour>
      <point x="264" y="647" type="qcurve" />
      <point x="247" y="630" type="line" />
      <point x="194" y="682" />
      <point x="143" y="726" type="qcurve" smooth="yes" />
      <point x="96" y="765" />
      <point x="96" y="800" type="qcurve" smooth="yes" />
      <point x="96" y="823" />
      <point x="120" y="852" />
      <point x="135" y="852" type="qcurve" />
      <point x="168" y="854" />
      <point x="194" y="796" type="qcurve" smooth="yes" />
      <point x="227" y="723" />
    </contour>
  </outline>
</glyph>
<glyph name="a" format="2">
  <advance width="475" height="1000" />
  <unicode hex="0061" />
  <outline>
    <contour>
      <point x="292" y="104" type="qcurve" />
      <point x="292" y="301" type="line" />
      <point x="242" y="281" />
      <point x="232" y="274" type="qcurve" />
      <point x="144" y="227" />
      <point x="144" y="131" type="qcurve" smooth="yes" />
      <point x="144" y="88" />
      <point x="179" y="45" />
      <point x="208" y="47" type="qcurve" smooth="yes" />
      <point x="228" y="48" />
      <point x="263" y="73" />
    </contour>
    <contour>
      <point x="459" y="79" type="qcurve" />
      <point x="473" y="65" type="line" />
      <point x="444" y="-5" />
      <point x="382" y="-8" type="qcurve" smooth="yes" />
      <point x="312" y="-12" />
      <point x="295" y="75" type="qcurve" />
      <point x="258" y="25" />
      <point x="202" y="-18" />
      <point x="160" y="-20" type="qcurve" smooth="yes" />
      <point x="109" y="-23" />
      <point x="44" y="46" />
      <point x="44" y="108" type="qcurve" smooth="yes" />
      <point x="44" y="172" />
      <point x="114" y="256" />
      <point x="204" y="296" type="qcurve" />
      <point x="242" y="314" />
      <point x="292" y="330" type="qcurve" />
      <point x="292" y="381" type="line" smooth="yes" />
      <point x="292" y="459" />
      <point x="256" y="514" />
      <point x="210" y="512" type="qcurve" smooth="yes" />
      <point x="190" y="511" />
      <point x="168" y="504" type="qcurve" />
      <point x="157" y="431" type="line" />
      <point x="152" y="354" />
      <point x="105" y="352" type="qcurve" smooth="yes" />
      <point x="64" y="350" />
      <point x="57" y="395" type="qcurve" />
      <point x="65" y="464" />
      <point x="163" y="547" />
      <point x="245" y="551" type="qcurve" smooth="yes" />
      <point x="324" y="555" />
      <point x="394" y="466" />
      <point x="394" y="361" type="qcurve" smooth="yes" />
      <point x="394" y="103" type="line" smooth="yes" />
      <point x="394" y="43" />
      <point x="423" y="45" type="qcurve" />
      <point x="439" y="45" />
    </contour>
  </outline>
</glyph>
<glyph name="b" format="2">
  <advance width="548" height="1000" />
  <unicode hex="0062" />
  <outline>
    <contour>
      <point x="200" y="441" type="qcurve" />
      <point x="200" y="87" type="line" />
      <point x="238" y="46" />
      <point x="283" y="48" type="qcurve" smooth="yes" />
      <point x="395" y="54" />
      <point x="395" y="276" type="qcurve" smooth="yes" />
      <point x="395" y="386" />
      <point x="336" y="492" />
      <point x="286" y="489" type="qcurve" smooth="yes" />
      <point x="240" y="487" />
    </contour>
    <contour>
      <point x="198" y="647" type="line" />
      <point x="198" y="471" type="line" />
      <point x="256" y="550" />
      <point x="334" y="554" type="qcurve" smooth="yes" />
      <point x="410" y="558" />
      <point x="507" y="414" />
      <point x="507" y="283" type="qcurve" smooth="yes" />
      <point x="507" y="158" />
      <point x="406" y="-10" />
      <point x="325" y="-14" type="qcurve" smooth="yes" />
      <point x="247" y="-17" />
      <point x="197" y="54" type="qcurve" />
      <point x="184" y="-17" type="line" />
      <point x="36" y="-12" type="line" />
      <point x="36" y="19" type="line" />
      <point x="94" y="30" type="line" />
      <point x="96" y="146" />
      <point x="96" y="226" type="qcurve" smooth="yes" />
      <point x="96" y="732" type="line" />
      <point x="31" y="736" type="line" />
      <point x="31" y="764" type="line" />
      <point x="190" y="815" type="line" />
      <point x="202" y="806" type="line" />
    </contour>
  </outline>
</glyph>
<glyph name="c" format="2">
  <advance width="465" height="1000" />
  <unicode hex="0063" />
  <outline>
    <contour>
      <point x="323" y="435" type="qcurve" />
      <point x="311" y="513" type="line" />
      <point x="299" y="517" />
      <point x="280" y="516" type="qcurve" smooth="yes" />
      <point x="222" y="513" />
      <point x="151" y="385" />
      <point x="151" y="275" type="qcurve" smooth="yes" />
      <point x="151" y="168" />
      <point x="230" y="49" />
      <point x="295" y="53" type="qcurve" />
      <point x="366" y="56" />
      <point x="411" y="134" type="qcurve" />
      <point x="427" y="123" type="line" />
      <point x="376" y="-9" />
      <point x="253" y="-15" type="qcurve" smooth="yes" />
      <point x="160" y="-20" />
      <point x="40" y="126" />
      <point x="40" y="256" type="qcurve" smooth="yes" />
      <point x="40" y="387" />
      <point x="171" y="548" />
      <point x="267" y="552" type="qcurve" smooth="yes" />
      <point x="330" y="555" />
      <point x="419" y="475" />
      <point x="427" y="410" type="qcurve" />
      <point x="417" y="363" />
      <point x="381" y="361" type="qcurve" smooth="yes" />
      <point x="330" y="358" />
    </contour>
  </outline>
</glyph>
<glyph name="d" format="2">
  <advance width="536" height="1000" />
  <unicode hex="0064" />
  <outline>
    <contour>
      <point x="345" y="93" type="qcurve" />
      <point x="345" y="455" type="line" />
      <point x="309" y="491" />
      <point x="269" y="489" type="qcurve" smooth="yes" />
      <point x="217" y="486" />
      <point x="153" y="378" />
      <point x="153" y="263" type="qcurve" smooth="yes" />
      <point x="153" y="149" />
      <point x="215" y="46" />
      <point x="268" y="49" type="qcurve" smooth="yes" />
      <point x="311" y="51" />
    </contour>
    <contour>
      <point x="451" y="47" type="line" />
      <point x="511" y="44" type="line" />
      <point x="511" y="13" type="line" />
      <point x="353" y="-6" type="line" />
      <point x="348" y="61" type="line" />
      <point x="297" y="-14" />
      <point x="224" y="-17" type="qcurve" smooth="yes" />
      <point x="144" y="-21" />
      <point x="41" y="124" />
      <point x="41" y="251" type="qcurve" smooth="yes" />
      <point x="41" y="384" />
      <point x="150" y="546" />
      <point x="234" y="550" type="qcurve" smooth="yes" />
      <point x="302" y="553" />
      <point x="349" y="486" type="qcurve" />
      <point x="349" y="746" type="line" />
      <point x="281" y="749" type="line" />
      <point x="281" y="777" type="line" />
      <point x="442" y="828" type="line" />
      <point x="453" y="820" type="line" />
      <point x="451" y="662" type="line" />
    </contour>
  </outline>
</glyph>
<glyph name="f" format="2">
  <advance width="309" height="1000" />
  <unicode hex="0066" />
  <outline>
    <contour>
      <point x="30" y="520" type="line" />
      <point x="99" y="533" type="line" />
      <point x="109" y="687" />
      <point x="168" y="762" type="qcurve" smooth="yes" />
      <point x="226" y="834" />
      <point x="304" y="837" type="qcurve" />
      <point x="384" y="842" />
      <point x="398" y="775" type="qcurve" />
      <point x="397" y="749" />
      <point x="369" y="715" />
      <point x="344" y="714" type="qcurve" />
      <point x="304" y="711" />
      <point x="274" y="770" type="qcurve" />
      <point x="257" y="797" type="line" />
      <point x="240" y="785" />
      <point x="232" y="767" type="qcurve" />
      <point x="197" y="700" />
      <point x="202" y="537" type="qcurve" />
      <point x="312" y="543" type="line" />
      <point x="312" y="501" type="line" />
      <point x="203" y="495" type="line" />
      <point x="203" y="237" type="line" smooth="yes" />
      <point x="203" y="172" />
      <point x="204" y="45" type="qcurve" />
      <point x="280" y="37" type="line" />
      <point x="280" y="6" type="line" />
      <point x="34" y="-6" type="line" />
      <point x="34" y="25" type="line" />
      <point x="96" y="37" type="line" />
      <point x="98" y="133" />
      <point x="98" y="232" type="qcurve" smooth="yes" />
      <point x="98" y="490" type="line" />
      <point x="30" y="487" type="line" />
    </contour>
  </outline>
</glyph>
<glyph name="g" format="2">
  <advance width="484" height="1000" />
  <unicode hex="0067" />
  <outline>
    <contour>
      <point x="222" y="216" type="qcurve" />
      <point x="261" y="217" />
      <point x="303" y="302" />
      <point x="303" y="373" type="qcurve" smooth="yes" />
      <point x="303" y="441" />
      <point x="262" y="519" />
      <point x="188" y="515" />
      <point x="146" y="432" />
      <point x="146" y="292" />
      <point x="186" y="214" />
    </contour>
    <contour>
      <point x="297" y="-25" type="qcurve" smooth="yes" />
      <point x="204" y="-29" type="line" />
      <point x="154" y="-32" />
      <point x="127" y="-25" type="qcurve" />
      <point x="100" y="-67" />
      <point x="100" y="-113" type="qcurve" smooth="yes" />
      <point x="100" y="-168" />
      <point x="163" y="-222" />
      <point x="218" y="-220" type="qcurve" smooth="yes" />
      <point x="294" y="-216" />
      <point x="374" y="-153" />
      <point x="374" y="-105" type="qcurve" smooth="yes" />
      <point x="374" y="-21" />
    </contour>
    <contour>
      <point x="465" y="551" type="line" />
      <point x="465" y="478" type="line" />
      <point x="371" y="482" type="line" />
      <point x="398" y="440" />
      <point x="398" y="376" type="qcurve" smooth="yes" />
      <point x="398" y="292" />
      <point x="306" y="186" />
      <point x="223" y="182" type="qcurve" smooth="yes" />
      <point x="174" y="179" />
      <point x="137" y="196" type="qcurve" />
      <point x="119" y="164" />
      <point x="119" y="132" type="qcurve" smooth="yes" />
      <point x="119" y="104" />
      <point x="147" y="79" />
      <point x="180" y="80" type="qcurve" />
      <point x="298" y="86" type="line" smooth="yes" />
      <point x="458" y="94" />
      <point x="458" y="-53" type="qcurve" smooth="yes" />
      <point x="458" y="-136" />
      <point x="331" y="-256" />
      <point x="218" y="-262" type="qcurve" />
      <point x="122" y="-266" />
      <point x="30" y="-197" />
      <point x="30" y="-136" type="qcurve" smooth="yes" />
      <point x="30" y="-65" />
      <point x="112" y="-17" type="qcurve" />
      <point x="54" y="7" />
      <point x="54" y="70" type="qcurve" smooth="yes" />
      <point x="54" y="104" />
      <point x="84" y="166" />
      <point x="119" y="206" type="qcurve" />
      <point x="50" y="252" />
      <point x="50" y="359" type="qcurve" smooth="yes" />
      <point x="50" y="442" />
      <point x="142" y="546" />
      <point x="225" y="550" type="qcurve" smooth="yes" />
      <point x="305" y="554" />
      <point x="350" y="509" type="qcurve" />
      <point x="451" y="561" type="line" />
    </contour>
  </outline>
</glyph>
<glyph name="h" format="2">
  <advance width="559" height="1000" />
  <unicode hex="0068" />
  <outline>
    <contour>
      <point x="475" y="49" type="qcurve" />
      <point x="530" y="44" type="line" />
      <point x="530" y="13" type="line" />
      <point x="311" y="2" type="line" />
      <point x="311" y="33" type="line" />
      <point x="368" y="45" type="line" />
      <point x="370" y="157" />
      <point x="370" y="240" type="qcurve" smooth="yes" />
      <point x="370" y="368" type="line" smooth="yes" />
      <point x="370" y="431" />
      <point x="338" y="483" />
      <point x="305" y="481" type="qcurve" smooth="yes" />
      <point x="256" y="479" />
      <point x="199" y="411" type="qcurve" />
      <point x="199" y="231" type="line" smooth="yes" />
      <point x="199" y="120" />
      <point x="202" y="35" type="qcurve" />
      <point x="253" y="30" type="line" />
      <point x="253" y="-1" type="line" />
      <point x="35" y="-12" type="line" />
      <point x="35" y="19" type="line" />
      <point x="94" y="31" type="line" />
      <point x="95" y="145" />
      <point x="95" y="226" type="qcurve" smooth="yes" />
      <point x="95" y="733" type="line" />
      <point x="31" y="736" type="line" />
      <point x="31" y="764" type="line" />
      <point x="189" y="815" type="line" />
      <point x="201" y="806" type="line" />
      <point x="198" y="647" type="line" />
      <point x="198" y="444" type="line" />
      <point x="270" y="551" />
      <point x="351" y="555" type="qcurve" smooth="yes" />
      <point x="474" y="561" />
      <point x="474" y="365" type="qcurve" smooth="yes" />
      <point x="474" y="245" type="line" smooth="yes" />
      <point x="474" y="163" />
    </contour>
  </outline>
</glyph>
<glyph name="j" format="2">
  <advance width="259" height="1000" />
  <unicode hex="006A" />
  <outline>
    <contour>
      <point x="161" y="685" type="qcurve" smooth="yes" />
      <point x="143" y="663" />
      <point x="90" y="660" />
      <point x="54" y="700" />
      <point x="54" y="732" type="qcurve" smooth="yes" />
      <point x="54" y="765" />
      <point x="90" y="809" />
      <point x="143" y="812" />
      <point x="179" y="772" />
      <point x="179" y="739" type="qcurve" smooth="yes" />
      <point x="179" y="707" />
    </contour>
    <contour>
      <point x="0" y="487" type="line" />
      <point x="162" y="552" type="line" />
      <point x="173" y="543" type="line" />
      <point x="170" y="387" type="line" />
      <point x="170" y="91" type="line" smooth="yes" />
      <point x="170" y="-35" />
      <point x="148" y="-157" />
      <point x="116" y="-202" type="qcurve" smooth="yes" />
      <point x="64" y="-274" />
      <point x="-9" y="-278" type="qcurve" smooth="yes" />
      <point x="-92" y="-282" />
      <point x="-109" y="-221" type="qcurve" />
      <point x="-106" y="-192" />
      <point x="-72" y="-156" />
      <point x="-50" y="-155" type="qcurve" smooth="yes" />
      <point x="-6" y="-153" />
      <point x="20" y="-200" type="qcurve" smooth="yes" />
      <point x="37" y="-231" type="line" />
      <point x="48" y="-217" />
      <point x="53" y="-198" type="qcurve" />
      <point x="60" y="-176" />
      <point x="66" y="-89" />
      <point x="67" y="-17" />
      <point x="67" y="63" type="qcurve" smooth="yes" />
      <point x="67" y="87" />
      <point x="67" y="99" type="qcurve" smooth="yes" />
      <point x="67" y="300" type="line" smooth="yes" />
      <point x="67" y="359" />
      <point x="64" y="455" type="qcurve" />
      <point x="0" y="460" type="line" />
    </contour>
  </outline>
</glyph>
<glyph name="k" format="2">
  <advance width="523" height="1000" />
  <unicode hex="006B" />
  <outline>
    <contour>
      <point x="465" y="50" type="line" />
      <point x="520" y="44" type="line" />
      <point x="520" y="13" type="line" />
      <point x="368" y="6" type="line" />
      <point x="245" y="289" type="line" />
      <point x="200" y="232" type="line" />
      <point x="200" y="121" />
      <point x="202" y="36" type="qcurve" />
      <point x="259" y="31" type="line" />
      <point x="259" y="0" type="line" />
      <point x="34" y="-11" type="line" />
      <point x="34" y="20" type="line" />
      <point x="94" y="32" type="line" />
      <point x="96" y="148" />
      <point x="96" y="227" type="qcurve" smooth="yes" />
      <point x="96" y="734" type="line" />
      <point x="31" y="737" type="line" />
      <point x="31" y="765" type="line" />
      <point x="192" y="816" type="line" />
      <point x="203" y="807" type="line" />
      <point x="200" y="648" type="line" />
      <point x="200" y="279" type="line" />
      <point x="368" y="495" type="line" />
      <point x="291" y="505" type="line" />
      <point x="291" y="537" type="line" />
      <point x="497" y="547" type="line" />
      <point x="497" y="515" type="line" />
      <point x="417" y="500" type="line" />
      <point x="318" y="377" type="line" />
    </contour>
  </outline>
</glyph>
<glyph name="l" format="2">
  <advance width="293" height="1000" />
  <unicode hex="006C" />
  <outline>
    <contour>
      <point x="202" y="42" type="qcurve" />
      <point x="264" y="37" type="line" />
      <point x="264" y="6" type="line" />
      <point x="32" y="-6" type="line" />
      <point x="32" y="25" type="line" />
      <point x="93" y="37" type="line" />
      <point x="96" y="131" />
      <point x="96" y="232" type="qcurve" smooth="yes" />
      <point x="96" y="739" type="line" />
      <point x="31" y="742" type="line" />
      <point x="31" y="770" type="line" />
      <point x="192" y="821" type="line" />
      <point x="203" y="813" type="line" />
      <point x="200" y="653" type="line" />
      <point x="200" y="237" type="line" smooth="yes" />
      <point x="200" y="137" />
    </contour>
  </outline>
</glyph>
<glyph name="q" format="2">
  <advance width="519" height="1000" />
  <unicode hex="0071" />
  <outline>
    <contour>
      <point x="347" y="92" type="qcurve" />
      <point x="347" y="450" type="line" />
      <point x="309" y="491" />
      <point x="268" y="488" type="qcurve" />
      <point x="216" y="486" />
      <point x="153" y="374" />
      <point x="153" y="259" type="qcurve" smooth="yes" />
      <point x="153" y="43" />
      <point x="268" y="48" type="qcurve" />
      <point x="312" y="51" />
    </contour>
    <contour>
      <point x="454" y="-211" type="qcurve" />
      <point x="511" y="-217" type="line" />
      <point x="511" y="-247" type="line" />
      <point x="278" y="-259" type="line" />
      <point x="278" y="-229" type="line" />
      <point x="347" y="-216" type="line" />
      <point x="349" y="-117" />
      <point x="349" y="-20" type="qcurve" smooth="yes" />
      <point x="349" y="65" type="line" />
      <point x="297" y="-14" />
      <point x="220" y="-18" type="qcurve" smooth="yes" />
      <point x="141" y="-22" />
      <point x="41" y="123" />
      <point x="41" y="251" type="qcurve" smooth="yes" />
      <point x="41" y="381" />
      <point x="151" y="546" />
      <point x="236" y="550" type="qcurve" smooth="yes" />
      <point x="310" y="554" />
      <point x="356" y="479" type="qcurve" />
      <point x="444" y="557" type="line" />
      <point x="455" y="550" type="line" />
      <point x="452" y="399" type="line" />
      <point x="452" y="-15" type="line" smooth="yes" />
      <point x="452" y="-114" />
    </contour>
  </outline>
</glyph>
<glyph name="r" format="2">
  <advance width="404" height="1000" />
  <unicode hex="0072" />
  <outline>
    <contour>
      <point x="192" y="541" type="line" />
      <point x="200" y="403" type="line" />
      <point x="218" y="474" />
      <point x="289" y="556" />
      <point x="327" y="558" type="qcurve" smooth="yes" />
      <point x="386" y="561" />
      <point x="399" y="498" type="qcurve" />
      <point x="395" y="422" />
      <point x="344" y="419" type="qcurve" smooth="yes" />
      <point x="313" y="417" />
      <point x="280" y="464" type="qcurve" smooth="yes" />
      <point x="272" y="475" type="line" />
      <point x="224" y="426" />
      <point x="200" y="325" type="qcurve" />
      <point x="200" y="236" type="line" smooth="yes" />
      <point x="200" y="158" />
      <point x="201" y="44" type="qcurve" />
      <point x="275" y="36" type="line" />
      <point x="275" y="5" type="line" />
      <point x="34" y="-7" type="line" />
      <point x="34" y="24" type="line" />
      <point x="92" y="35" type="line" />
      <point x="94" y="150" />
      <point x="94" y="231" type="qcurve" smooth="yes" />
      <point x="94" y="303" type="line" smooth="yes" />
      <point x="94" y="388" />
      <point x="91" y="451" type="qcurve" />
      <point x="28" y="456" type="line" />
      <point x="28" y="481" type="line" />
      <point x="181" y="550" type="line" />
    </contour>
  </outline>
</glyph>
<glyph name="s" format="2">
  <advance width="414" height="1000" />
  <unicode hex="0073" />
  <outline>
    <contour>
      <point x="217" y="338" type="qcurve" smooth="yes" />
      <point x="259" y="324" type="line" />
      <point x="321" y="301" />
      <point x="377" y="224" />
      <point x="377" y="165" type="qcurve" smooth="yes" />
      <point x="377" y="87" />
      <point x="280" y="-12" />
      <point x="194" y="-17" type="qcurve" />
      <point x="116" y="-20" />
      <point x="46" y="22" type="qcurve" />
      <point x="49" y="152" type="line" />
      <point x="96" y="155" type="line" />
      <point x="118" y="35" type="line" />
      <point x="148" y="20" />
      <point x="188" y="22" type="qcurve" smooth="yes" />
      <point x="285" y="27" />
      <point x="285" y="113" type="qcurve" smooth="yes" />
      <point x="285" y="147" />
      <point x="250" y="190" />
      <point x="204" y="207" type="qcurve" smooth="yes" />
      <point x="160" y="223" type="line" smooth="yes" />
      <point x="49" y="261" />
      <point x="49" y="373" type="qcurve" smooth="yes" />
      <point x="49" y="448" />
      <point x="139" y="548" />
      <point x="219" y="552" type="qcurve" smooth="yes" />
      <point x="285" y="555" />
      <point x="353" y="513" type="qcurve" />
      <point x="348" y="393" type="line" />
      <point x="307" y="391" type="line" />
      <point x="282" y="498" type="line" />
      <point x="253" y="514" />
      <point x="221" y="513" type="qcurve" smooth="yes" />
      <point x="182" y="511" />
      <point x="138" y="465" />
      <point x="138" y="428" type="qcurve" smooth="yes" />
      <point x="138" y="395" />
      <point x="172" y="353" />
    </contour>
  </outline>
</glyph>
<glyph name="t" format="2">
  <advance width="311" height="1000" />
  <unicode hex="0074" />
  <outline>
    <contour>
      <point x="296" y="81" type="qcurve" />
      <point x="311" y="62" type="line" />
      <point x="274" y="-10" />
      <point x="195" y="-14" type="qcurve" smooth="yes" />
      <point x="81" y="-20" />
      <point x="81" y="127" type="qcurve" smooth="yes" />
      <point x="81" y="142" />
      <point x="82" y="206" />
      <point x="82" y="227" type="qcurve" smooth="yes" />
      <point x="82" y="489" type="line" />
      <point x="13" y="486" type="line" />
      <point x="13" y="519" type="line" />
      <point x="87" y="532" type="line" />
      <point x="122" y="691" type="line" />
      <point x="191" y="694" type="line" />
      <point x="188" y="536" type="line" />
      <point x="294" y="542" type="line" />
      <point x="294" y="500" type="line" />
      <point x="187" y="494" type="line" />
      <point x="187" y="124" type="line" smooth="yes" />
      <point x="187" y="45" />
      <point x="239" y="48" type="qcurve" smooth="yes" />
      <point x="263" y="49" />
    </contour>
  </outline>
</glyph>
<glyph name="v" format="2">
  <advance width="461" height="1000" />
  <unicode hex="0076" />
  <outline>
    <contour>
      <point x="454" y="547" type="line" />
      <point x="454" y="515" type="line" />
      <point x="399" y="501" type="line" />
      <point x="249" y="-2" type="line" />
      <point x="202" y="-4" type="line" />
      <point x="43" y="486" type="line" />
      <point x="-8" y="491" type="line" />
      <point x="-8" y="523" type="line" />
      <point x="222" y="535" type="line" />
      <point x="222" y="503" type="line" />
      <point x="158" y="491" type="line" />
      <point x="263" y="131" type="line" />
      <point x="362" y="499" type="line" />
      <point x="296" y="507" type="line" />
      <point x="296" y="539" type="line" />
    </contour>
  </outline>
</glyph>
<glyph name="w" format="2">
  <advance width="696" height="1000" />
  <unicode hex="0077" />
  <outline>
    <contour>
      <point x="691" y="552" type="line" />
      <point x="691" y="520" type="line" />
      <point x="637" y="506" type="line" />
      <point x="502" y="4" type="line" />
      <point x="457" y="2" type="line" />
      <point x="367" y="300" />
      <point x="344" y="395" type="qcurve" />
      <point x="229" y="-9" type="line" />
      <point x="184" y="-11" type="line" />
      <point x="40" y="480" type="line" />
      <point x="-6" y="485" type="line" />
      <point x="-6" y="517" type="line" />
      <point x="214" y="528" type="line" />
      <point x="214" y="496" type="line" />
      <point x="149" y="485" type="line" />
      <point x="242" y="122" type="line" />
      <point x="339" y="493" type="line" />
      <point x="276" y="499" type="line" />
      <point x="276" y="531" type="line" />
      <point x="475" y="541" type="line" />
      <point x="475" y="509" type="line" />
      <point x="413" y="496" type="line" />
      <point x="514" y="142" type="line" />
      <point x="599" y="503" type="line" />
      <point x="527" y="512" type="line" />
      <point x="527" y="544" type="line" />
    </contour>
  </outline>
</glyph>
<glyph name="z" format="2">
  <advance width="423" height="1000" />
  <unicode hex="007A" />
  <outline>
    <contour>
      <point x="358" y="187" type="line" />
      <point x="399" y="189" type="line" />
      <point x="390" y="9" type="line" />
      <point x="31" y="-9" type="line" />
      <point x="31" y="23" type="line" />
      <point x="277" y="501" type="line" />
      <point x="109" y="493" type="line" />
      <point x="77" y="360" type="line" />
      <point x="36" y="363" type="line" />
      <point x="42" y="527" type="line" />
      <point x="388" y="544" type="line" />
      <point x="388" y="512" type="line" />
      <point x="147" y="33" type="line" />
      <point x="323" y="42" type="line" />
    </contour>
  </outline>
</glyph>
<glyph name="braceleft" format="2">
  <advance width="320" height="1000" />
  <unicode hex="007B" />
  <outline>
    <contour>
      <point x="286" y="768" type="line" />
      <point x="261" y="762" type="line" />
      <point x="220" y="756" />
      <point x="183" y="708" />
      <point x="183" y="661" type="qcurve" smooth="yes" />
      <point x="183" y="622" />
      <point x="209" y="482" />
      <point x="209" y="454" type="qcurve" smooth="yes" />
      <point x="209" y="334" />
      <point x="103" y="308" type="qcurve" />
      <point x="209" y="291" />
      <point x="209" y="171" type="qcurve" smooth="yes" />
      <point x="209" y="143" />
      <point x="183" y="1" />
      <point x="183" y="-38" type="qcurve" smooth="yes" />
      <point x="183" y="-85" />
      <point x="220" y="-131" />
      <point x="261" y="-133" type="qcurve" />
      <point x="286" y="-135" type="line" />
      <point x="286" y="-172" type="line" />
      <point x="255" y="-174" type="line" smooth="yes" />
      <point x="181" y="-177" />
      <point x="101" y="-110" />
      <point x="101" y="-41" type="qcurve" smooth="yes" />
      <point x="101" y="6" />
      <point x="146" y="157" />
      <point x="146" y="187" type="qcurve" smooth="yes" />
      <point x="146" y="229" />
      <point x="101" y="279" />
      <point x="45" y="286" type="qcurve" />
      <point x="45" y="324" type="line" />
      <point x="101" y="334" />
      <point x="146" y="390" />
      <point x="146" y="432" type="qcurve" smooth="yes" />
      <point x="146" y="462" />
      <point x="101" y="607" />
      <point x="101" y="654" type="qcurve" smooth="yes" />
      <point x="101" y="723" />
      <point x="181" y="800" />
      <point x="255" y="803" type="qcurve" smooth="yes" />
      <point x="286" y="805" type="line" />
    </contour>
  </outline>
</glyph>
<glyph name="bar" format="2">
  <advance width="277" height="1000" />
  <unicode hex="007C" />
  <outline>
    <contour>
      <point x="109" y="-280" type="line" />
      <point x="109" y="837" type="line" />
      <point x="167" y="840" type="line" />
      <point x="167" y="-277" type="line" />
    </contour>
  </outline>
</glyph>
<glyph name="braceright" format="2">
  <advance width="320" height="1000" />
  <unicode hex="007D" />
  <outline>
    <contour>
      <point x="275" y="336" type="qcurve" />
      <point x="275" y="298" type="line" />
      <point x="220" y="286" />
      <point x="174" y="231" />
      <point x="174" y="189" type="qcurve" smooth="yes" />
      <point x="174" y="159" />
      <point x="220" y="13" />
      <point x="220" y="-34" type="qcurve" smooth="yes" />
      <point x="220" y="-103" />
      <point x="139" y="-179" />
      <point x="66" y="-183" type="qcurve" smooth="yes" />
      <point x="34" y="-184" type="line" />
      <point x="34" y="-147" type="line" />
      <point x="60" y="-142" type="line" />
      <point x="101" y="-136" />
      <point x="138" y="-87" />
      <point x="138" y="-40" type="qcurve" smooth="yes" />
      <point x="138" y="-1" />
      <point x="111" y="138" />
      <point x="111" y="166" type="qcurve" smooth="yes" />
      <point x="111" y="286" />
      <point x="218" y="314" type="qcurve" />
      <point x="111" y="329" />
      <point x="111" y="449" type="qcurve" smooth="yes" />
      <point x="111" y="477" />
      <point x="138" y="620" />
      <point x="138" y="659" type="qcurve" smooth="yes" />
      <point x="138" y="706" />
      <point x="101" y="751" />
      <point x="60" y="753" type="qcurve" />
      <point x="34" y="756" type="line" />
      <point x="34" y="793" type="line" />
      <point x="66" y="794" type="line" smooth="yes" />
      <point x="139" y="798" />
      <point x="220" y="730" />
      <point x="220" y="661" type="qcurve" smooth="yes" />
      <point x="220" y="614" />
      <point x="174" y="464" />
      <point x="174" y="434" type="qcurve" smooth="yes" />
      <point x="174" y="392" />
      <point x="220" y="341" />
    </contour>
  </outline>
</glyph>
<glyph name="asciitilde" format="2">
  <advance width="502" height="1000" />
  <unicode hex="007E" />
  <outline>
    <contour>
      <point x="265" y="405" type="qcurve" />
      <point x="315" y="357" />
      <point x="350" y="358" type="qcurve" />
      <point x="404" y="361" />
      <point x="412" y="478" type="qcurve" />
      <point x="452" y="474" type="line" />
      <point x="449" y="392" />
      <point x="392" y="309" />
      <point x="344" y="306" type="qcurve" />
      <point x="316" y="305" />
      <point x="272" y="330" />
      <point x="239" y="363" type="qcurve" smooth="yes" />
      <point x="211" y="390" />
      <point x="176" y="412" />
      <point x="157" y="411" type="qcurve" smooth="yes" />
      <point x="100" y="408" />
      <point x="92" y="292" type="qcurve" />
      <point x="52" y="296" type="line" />
      <point x="55" y="378" />
      <point x="112" y="461" />
      <point x="160" y="463" type="qcurve" smooth="yes" />
      <point x="189" y="464" />
      <point x="234" y="438" />
    </contour>
  </outline>
</glyph>
<glyph name="exclamdown" format="2">
  <advance width="319" height="1000" />
  <unicode hex="00A1" />
  <outline>
    <contour>
      <point x="112" y="521.5" type="qcurve" smooth="yes" />
      <point x="131" y="546" />
      <point x="187" y="549" />
      <point x="226" y="503" />
      <point x="226" y="469" type="qcurve" smooth="yes" />
      <point x="226" y="434" />
      <point x="187" y="384" />
      <point x="131" y="381" />
      <point x="93" y="427" />
      <point x="93" y="497" />
    </contour>
    <contour>
      <point x="159" y="-224" type="qcurve" />
      <point x="129" y="-225" />
      <point x="95" y="-185" />
      <point x="95" y="-145" type="qcurve" smooth="yes" />
      <point x="95" y="-76" />
      <point x="131" y="134" type="qcurve" />
      <point x="147" y="285" type="line" />
      <point x="172" y="286" type="line" />
      <point x="189" y="137" type="line" />
      <point x="224" y="-78" />
      <point x="224" y="-138" type="qcurve" smooth="yes" />
      <point x="224" y="-178" />
      <point x="190" y="-222" />
    </contour>
  </outline>
</glyph>
<glyph name="cent" format="2">
  <advance width="484" height="1000" />
  <unicode hex="00A2" />
  <outline>
    <contour>
      <point x="254" y="140" type="qcurve" />
      <point x="254" y="591" type="line" />
      <point x="204" y="572" />
      <point x="145" y="453" />
      <point x="145" y="362" type="qcurve" smooth="yes" />
      <point x="145" y="270" />
      <point x="204" y="155" />
    </contour>
    <contour>
      <point x="290" y="134" type="line" />
      <point x="298" y="135" type="line" />
      <point x="375" y="139" />
      <point x="424" y="212" type="qcurve" />
      <point x="441" y="201" type="line" />
      <point x="396" y="86" />
      <point x="290" y="67" type="qcurve" />
      <point x="290" y="-48" type="line" />
      <point x="254" y="-49" type="line" />
      <point x="254" y="65" type="line" />
      <point x="164" y="65" />
      <point x="44" y="214" />
      <point x="44" y="460" />
      <point x="162" y="620" />
      <point x="254" y="633" type="qcurve" />
      <point x="254" y="736" type="line" />
      <point x="290" y="737" type="line" />
      <point x="290" y="634" type="line" />
      <point x="353" y="633" />
      <point x="434" y="558" />
      <point x="443" y="494" type="qcurve" />
      <point x="433" y="448" />
      <point x="397" y="447" type="qcurve" smooth="yes" />
      <point x="356" y="445" />
      <point x="344" y="513" type="qcurve" smooth="yes" />
      <point x="330" y="593" type="line" />
      <point x="310" y="599" />
      <point x="291" y="598" type="qcurve" />
      <point x="290" y="598" type="line" />
    </contour>
  </outline>
</glyph>
<glyph name="sterling" format="2">
  <advance width="486" height="1000" />
  <unicode hex="00A3" />
  <outline>
    <contour>
      <point x="120" y="100" type="qcurve" />
      <point x="439" y="116" type="line" />
      <point x="439" y="10" type="line" />
      <point x="48" y="-9" type="line" />
      <point x="48" y="73" type="line" />
      <point x="141" y="143" />
      <point x="141" y="266" type="qcurve" smooth="yes" />
      <point x="141" y="283" />
      <point x="138" y="311" type="qcurve" />
      <point x="55" y="307" type="line" />
      <point x="55" y="355" type="line" />
      <point x="126" y="358" type="line" />
      <point x="123" y="368" />
      <point x="104" y="418" />
      <point x="96" y="448" />
      <point x="87" y="498" />
      <point x="87" y="525" type="qcurve" smooth="yes" />
      <point x="87" y="615" />
      <point x="190" y="727" />
      <point x="268" y="731" type="qcurve" smooth="yes" />
      <point x="336" y="734" />
      <point x="425" y="653" />
      <point x="434" y="582" type="qcurve" />
      <point x="424" y="538" />
      <point x="390" y="537" type="qcurve" smooth="yes" />
      <point x="368" y="536" />
      <point x="340" y="567" />
      <point x="333" y="608" type="qcurve" />
      <point x="317" y="691" type="line" />
      <point x="304" y="694" />
      <point x="287" y="693" type="qcurve" smooth="yes" />
      <point x="239" y="691" />
      <point x="184" y="608" />
      <point x="184" y="537" type="qcurve" smooth="yes" />
      <point x="184" y="506" />
      <point x="192" y="448" />
      <point x="204" y="380" />
      <point x="206" y="362" type="qcurve" />
      <point x="353" y="370" type="line" />
      <point x="353" y="322" type="line" />
      <point x="210" y="315" type="line" />
      <point x="212" y="300" />
      <point x="210" y="283" type="qcurve" />
      <point x="205" y="168" />
    </contour>
  </outline>
</glyph>
<glyph name="currency" format="2">
  <advance width="480" height="1000" />
  <unicode hex="00A4" />
  <outline>
    <contour>
      <point x="240" y="225" type="qcurve" smooth="yes" />
      <point x="287" y="227" />
      <point x="349" y="309" />
      <point x="349" y="433" />
      <point x="287" y="509" />
      <point x="240" y="507" type="qcurve" smooth="yes" />
      <point x="195" y="505" />
      <point x="131" y="422" />
      <point x="131" y="298" />
      <point x="195" y="223" />
    </contour>
    <contour>
      <point x="353" y="248" type="qcurve" />
      <point x="389" y="226" type="line" smooth="yes" />
      <point x="421" y="206" />
      <point x="451" y="177" />
      <point x="451" y="155" type="qcurve" smooth="yes" />
      <point x="451" y="138" />
      <point x="431" y="113" />
      <point x="418" y="112" type="qcurve" smooth="yes" />
      <point x="399" y="111" />
      <point x="373" y="147" />
      <point x="358" y="185" type="qcurve" />
      <point x="339" y="229" type="line" />
      <point x="297" y="183" />
      <point x="183" y="177" />
      <point x="141" y="219" type="qcurve" />
      <point x="122" y="173" type="line" smooth="yes" />
      <point x="106" y="134" />
      <point x="80" y="95" />
      <point x="63" y="94" type="qcurve" />
      <point x="49" y="94" />
      <point x="30" y="117" />
      <point x="30" y="134" type="qcurve" smooth="yes" />
      <point x="30" y="156" />
      <point x="59" y="188" />
      <point x="91" y="211" type="qcurve" smooth="yes" />
      <point x="127" y="236" type="line" />
      <point x="91" y="286" />
      <point x="91" y="358" type="qcurve" smooth="yes" />
      <point x="91" y="432" />
      <point x="127" y="484" type="qcurve" />
      <point x="91" y="507" type="line" />
      <point x="59" y="525" />
      <point x="29" y="556" />
      <point x="29" y="578" type="qcurve" smooth="yes" />
      <point x="29" y="594" />
      <point x="49" y="620" />
      <point x="62" y="620" type="qcurve" />
      <point x="80" y="621" />
      <point x="106" y="585" />
      <point x="122" y="547" type="qcurve" smooth="yes" />
      <point x="141" y="502" type="line" />
      <point x="183" y="549" />
      <point x="297" y="555" />
      <point x="339" y="512" type="qcurve" />
      <point x="358" y="558" type="line" smooth="yes" />
      <point x="370" y="587" />
      <point x="383" y="612" />
      <point x="405" y="637" />
      <point x="417" y="638" type="qcurve" smooth="yes" />
      <point x="431" y="639" />
      <point x="451" y="616" />
      <point x="451" y="599" type="qcurve" smooth="yes" />
      <point x="451" y="576" />
      <point x="421" y="543" />
      <point x="389" y="522" type="qcurve" />
      <point x="354" y="495" type="line" />
      <point x="389" y="445" />
      <point x="389" y="301" />
    </contour>
  </outline>
</glyph>
<glyph name="yen" format="2">
  <advance width="464" height="1000" />
  <unicode hex="00A5" />
  <outline>
    <contour>
      <point x="471" y="694" type="line" />
      <point x="409" y="680" type="line" />
      <point x="294" y="354" type="line" />
      <point x="417" y="360" type="line" />
      <point x="417" y="310" type="line" />
      <point x="283" y="303" type="line" />
      <point x="283" y="230" type="line" />
      <point x="417" y="237" type="line" />
      <point x="417" y="189" type="line" />
      <point x="283" y="182" type="line" />
      <point x="283" y="131" />
      <point x="285" y="43" type="qcurve" />
      <point x="371" y="38" type="line" />
      <point x="371" y="7" type="line" />
      <point x="94" y="-6" type="line" />
      <point x="94" y="25" type="line" />
      <point x="180" y="38" type="line" />
      <point x="181" y="97" />
      <point x="181" y="177" type="qcurve" />
      <point x="49" y="170" type="line" />
      <point x="49" y="218" type="line" />
      <point x="181" y="225" type="line" />
      <point x="181" y="298" type="line" />
      <point x="49" y="291" type="line" />
      <point x="49" y="341" type="line" />
      <point x="169" y="347" type="line" />
      <point x="45" y="667" type="line" />
      <point x="-7" y="670" type="line" />
      <point x="-7" y="702" type="line" />
      <point x="227" y="714" type="line" />
      <point x="227" y="682" type="line" />
      <point x="156" y="671" type="line" />
      <point x="264" y="362" type="line" />
      <point x="371" y="678" type="line" />
      <point x="297" y="686" type="line" />
      <point x="297" y="718" type="line" />
      <point x="471" y="726" type="line" />
    </contour>
  </outline>
</glyph>
<glyph name="brokenbar" format="2">
  <advance width="278" height="1000" />
  <unicode hex="00A6" />
  <outline>
    <contour>
      <point x="111" y="-280" type="line" />
      <point x="111" y="222" type="line" />
      <point x="168" y="224" type="line" />
      <point x="168" y="-278" type="line" />
    </contour>
    <contour>
      <point x="168" y="358" type="line" />
      <point x="111" y="356" type="line" />
      <point x="111" y="837" type="line" />
      <point x="168" y="839" type="line" />
    </contour>
  </outline>
</glyph>
<glyph name="section" format="2">
  <advance width="901" height="1000" />
  <unicode hex="00A7" />
  <outline>
    <contour>
      <point x="450" y="250" type="qcurve" />
      <point x="527" y="222" />
      <point x="564" y="190" type="qcurve" />
      <point x="583" y="223" />
      <point x="583" y="260" type="qcurve" smooth="yes" />
      <point x="583" y="311" />
      <point x="527" y="365" />
      <point x="449" y="395" type="qcurve" smooth="yes" />
      <point x="378" y="422" />
      <point x="339" y="457" type="qcurve" />
      <point x="320" y="426" />
      <point x="320" y="386" type="qcurve" smooth="yes" />
      <point x="320" y="334" />
      <point x="375" y="279" />
    </contour>
    <contour>
      <point x="526" y="653" type="qcurve" smooth="yes" />
      <point x="505" y="730" type="line" />
      <point x="490" y="734" />
      <point x="466" y="733" type="qcurve" smooth="yes" />
      <point x="374" y="728" />
      <point x="374" y="629" type="qcurve" smooth="yes" />
      <point x="374" y="586" />
      <point x="419" y="536" />
      <point x="478" y="513" type="qcurve" smooth="yes" />
      <point x="572" y="477" />
      <point x="648" y="385" />
      <point x="648" y="312" type="qcurve" smooth="yes" />
      <point x="648" y="232" />
      <point x="581" y="174" type="qcurve" />
      <point x="618" y="131" />
      <point x="618" y="62" type="qcurve" smooth="yes" />
      <point x="618" y="-14" />
      <point x="523" y="-119" />
      <point x="440" y="-123" type="qcurve" smooth="yes" />
      <point x="364" y="-127" />
      <point x="275" y="-52" />
      <point x="269" y="21" type="qcurve" />
      <point x="283" y="64" />
      <point x="312" y="65" type="qcurve" />
      <point x="335" y="67" />
      <point x="365" y="35" />
      <point x="376" y="-7" type="qcurve" smooth="yes" />
      <point x="398" y="-85" type="line" />
      <point x="411" y="-89" />
      <point x="433" y="-88" type="qcurve" smooth="yes" />
      <point x="479" y="-85" />
      <point x="529" y="-31" />
      <point x="529" y="20" type="qcurve" smooth="yes" />
      <point x="529" y="61" />
      <point x="480" y="109" />
      <point x="410" y="137" type="qcurve" smooth="yes" />
      <point x="327" y="170" />
      <point x="255" y="260" />
      <point x="255" y="331" type="qcurve" smooth="yes" />
      <point x="255" y="370" />
      <point x="291" y="445" />
      <point x="323" y="473" type="qcurve" />
      <point x="285" y="518" />
      <point x="285" y="588" type="qcurve" smooth="yes" />
      <point x="285" y="662" />
      <point x="379" y="765" />
      <point x="459" y="769" type="qcurve" smooth="yes" />
      <point x="536" y="773" />
      <point x="627" y="700" />
      <point x="632" y="629" type="qcurve" />
      <point x="629" y="608" />
      <point x="604" y="581" />
      <point x="589" y="580" type="qcurve" smooth="yes" />
      <point x="567" y="579" />
      <point x="537" y="611" />
    </contour>
  </outline>
</glyph>
<glyph name="dieresis" format="2">
  <advance width="369" height="1000" />
  <unicode hex="00A8" />
  <outline>
    <contour>
      <point x="285" y="669" type="qcurve" smooth="yes" />
      <point x="261" y="668" />
      <point x="227" y="703" />
      <point x="227" y="763" />
      <point x="261" y="803" />
      <point x="308" y="805" />
      <point x="341" y="769" />
      <point x="341" y="709" />
      <point x="308" y="670" />
    </contour>
    <contour>
      <point x="84" y="659" type="qcurve" smooth="yes" />
      <point x="61" y="658" />
      <point x="28" y="693" />
      <point x="28" y="753" />
      <point x="61" y="793" />
      <point x="84" y="794" type="qcurve" smooth="yes" />
      <point x="108" y="795" />
      <point x="141" y="759" />
      <point x="141" y="729" type="qcurve" smooth="yes" />
      <point x="141" y="698" />
      <point x="108" y="660" />
    </contour>
  </outline>
</glyph>
<glyph name="copyright" format="2">
  <advance width="684" height="1000" />
  <unicode hex="00A9" />
  <outline>
    <contour>
      <point x="416" y="187" type="qcurve" />
      <point x="436" y="292" type="line" />
      <point x="468" y="293" type="line" />
      <point x="466" y="181" type="line" />
      <point x="418" y="146" />
      <point x="358" y="143" type="qcurve" smooth="yes" />
      <point x="280" y="139" />
      <point x="177" y="258" />
      <point x="177" y="470" />
      <point x="282" y="601" />
      <point x="360" y="605" type="qcurve" smooth="yes" />
      <point x="416" y="608" />
      <point x="462" y="578" type="qcurve" />
      <point x="464" y="464" type="line" />
      <point x="432" y="462" type="line" />
      <point x="413" y="568" type="line" />
      <point x="396" y="575" />
      <point x="374" y="574" type="qcurve" smooth="yes" />
      <point x="322" y="571" />
      <point x="256" y="463" />
      <point x="256" y="275" />
      <point x="320" y="174" />
      <point x="373" y="177" type="qcurve" smooth="yes" />
      <point x="396" y="178" />
    </contour>
    <contour>
      <point x="342" y="19" type="qcurve" smooth="yes" />
      <point x="456" y="25" />
      <point x="612" y="227" />
      <point x="612" y="385" type="qcurve" smooth="yes" />
      <point x="612" y="542" />
      <point x="456" y="728" />
      <point x="342" y="722" type="qcurve" smooth="yes" />
      <point x="227" y="716" />
      <point x="72" y="516" />
      <point x="72" y="358" type="qcurve" smooth="yes" />
      <point x="72" y="199" />
      <point x="227" y="13" />
    </contour>
    <contour>
      <point x="123" y="642" type="qcurve" smooth="yes" />
      <point x="212" y="753" />
      <point x="472" y="766" />
      <point x="650" y="561" />
      <point x="650" y="387" type="qcurve" smooth="yes" />
      <point x="650" y="212" />
      <point x="471" y="-13" />
      <point x="213" y="-25" />
      <point x="34" y="182" />
      <point x="34" y="357" type="qcurve" smooth="yes" />
      <point x="34" y="531" />
    </contour>
  </outline>
</glyph>
<glyph name="ordfeminine" format="2">
  <advance width="318" height="1000" />
  <unicode hex="00AA" />
  <outline>
    <contour>
      <point x="194" y="540" type="qcurve" />
      <point x="194" y="666" type="line" />
      <point x="157" y="651" />
      <point x="152" y="648" type="qcurve" />
      <point x="95" y="619" />
      <point x="95" y="557" type="qcurve" smooth="yes" />
      <point x="95" y="529" />
      <point x="119" y="502" />
      <point x="137" y="503" type="qcurve" smooth="yes" />
      <point x="160" y="504" />
    </contour>
    <contour>
      <point x="305" y="525" type="qcurve" />
      <point x="314" y="516" type="line" />
      <point x="297" y="467" />
      <point x="255" y="465" type="qcurve" smooth="yes" />
      <point x="207" y="462" />
      <point x="197" y="518" type="qcurve" />
      <point x="170" y="484" />
      <point x="134" y="457" />
      <point x="106" y="455" type="qcurve" />
      <point x="72" y="454" />
      <point x="28" y="499" />
      <point x="28" y="543" type="qcurve" smooth="yes" />
      <point x="28" y="582" />
      <point x="74" y="638" />
      <point x="134" y="664" type="qcurve" />
      <point x="144" y="667" />
      <point x="188" y="684" />
      <point x="194" y="687" type="qcurve" />
      <point x="194" y="719" type="line" smooth="yes" />
      <point x="194" y="769" />
      <point x="171" y="804" />
      <point x="141" y="803" type="qcurve" />
      <point x="129" y="802" />
      <point x="113" y="799" type="qcurve" />
      <point x="105" y="753" type="line" />
      <point x="100" y="697" />
      <point x="69" y="695" type="qcurve" smooth="yes" />
      <point x="43" y="694" />
      <point x="37" y="727" type="qcurve" />
      <point x="43" y="771" />
      <point x="109" y="827" />
      <point x="164" y="830" type="qcurve" smooth="yes" />
      <point x="215" y="833" />
      <point x="262" y="773" />
      <point x="262" y="704" type="qcurve" smooth="yes" />
      <point x="262" y="536" type="line" smooth="yes" />
      <point x="262" y="501" />
      <point x="280" y="502" type="qcurve" />
      <point x="292" y="503" />
    </contour>
  </outline>
</glyph>
<glyph name="guillemotleft" format="2">
  <advance width="481" height="1000" />
  <unicode hex="00AB" />
  <outline>
    <contour>
      <point x="250" y="496" type="line" />
      <point x="110" y="276" type="line" />
      <point x="250" y="70" type="line" />
      <point x="234" y="47" type="line" />
      <point x="28" y="242" type="line" />
      <point x="28" y="302" type="line" />
      <point x="234" y="517" type="line" />
    </contour>
    <contour>
      <point x="437" y="505" type="line" />
      <point x="296" y="285" type="line" />
      <point x="437" y="79" type="line" />
      <point x="420" y="56" type="line" />
      <point x="215" y="251" type="line" />
      <point x="215" y="311" type="line" />
      <point x="420" y="526" type="line" />
    </contour>
  </outline>
</glyph>
<glyph name="logicalnot" format="2">
  <advance width="498" height="1000" />
  <unicode hex="00AC" />
  <outline>
    <contour>
      <point x="34" y="425" type="line" />
      <point x="449" y="446" type="line" />
      <point x="449" y="188" type="line" />
      <point x="403" y="186" type="line" />
      <point x="403" y="391" type="line" />
      <point x="34" y="372" type="line" />
    </contour>
  </outline>
</glyph>
<glyph name="registered" format="2">
  <advance width="428" height="1000" />
  <unicode hex="00AE" />
  <outline>
    <contour>
      <point x="198" y="673" type="line" />
      <point x="198" y="584" type="line" />
      <point x="210" y="585" type="line" smooth="yes" />
      <point x="227" y="586" />
      <point x="245" y="614" />
      <point x="245" y="634" type="qcurve" smooth="yes" />
      <point x="245" y="676" />
      <point x="208" y="674" type="qcurve" />
    </contour>
    <contour>
      <point x="280" y="535" type="qcurve" smooth="yes" />
      <point x="288" y="490" type="line" />
      <point x="310" y="488" type="line" />
      <point x="310" y="473" type="line" />
      <point x="293" y="468" />
      <point x="282" y="468" type="qcurve" />
      <point x="263" y="467" />
      <point x="246" y="479" />
      <point x="243" y="497" type="qcurve" smooth="yes" />
      <point x="236" y="538" type="line" />
      <point x="232" y="571" />
      <point x="210" y="570" type="qcurve" />
      <point x="198" y="569" type="line" />
      <point x="198" y="484" type="line" />
      <point x="220" y="484" type="line" />
      <point x="220" y="469" type="line" />
      <point x="134" y="464" type="line" />
      <point x="134" y="479" type="line" />
      <point x="156" y="482" type="line" />
      <point x="156" y="669" type="line" />
      <point x="134" y="671" type="line" />
      <point x="134" y="686" type="line" />
      <point x="219" y="691" type="line" />
      <point x="250" y="692" />
      <point x="286" y="663" />
      <point x="286" y="637" type="qcurve" smooth="yes" />
      <point x="286" y="593" />
      <point x="234" y="579" type="qcurve" />
      <point x="274" y="574" />
    </contour>
    <contour>
      <point x="214" y="381" type="qcurve" smooth="yes" />
      <point x="278" y="384" />
      <point x="366" y="496" />
      <point x="366" y="668" />
      <point x="278" y="768" />
      <point x="150" y="762" />
      <point x="62" y="652" />
      <point x="62" y="567" type="qcurve" smooth="yes" />
      <point x="62" y="481" />
      <point x="150" y="378" />
    </contour>
    <contour>
      <point x="86.5" y="729" type="qcurve" smooth="yes" />
      <point x="139" y="793" />
      <point x="290" y="800" />
      <point x="395" y="683" />
      <point x="395" y="583" type="qcurve" smooth="yes" />
      <point x="395" y="482" />
      <point x="290" y="353" />
      <point x="139" y="346" />
      <point x="34" y="464" />
      <point x="34" y="565" type="qcurve" smooth="yes" />
      <point x="34" y="665" />
    </contour>
  </outline>
</glyph>
<glyph name="macron" format="2">
  <advance width="382" height="1000" />
  <unicode hex="00AF" />
  <outline>
    <contour>
      <point x="60" y="665" type="line" />
      <point x="60" y="738" type="line" />
      <point x="321" y="751" type="line" />
      <point x="321" y="678" type="line" />
    </contour>
  </outline>
</glyph>
<glyph name="degree" format="2">
  <advance width="304" height="1000" />
  <unicode hex="00B0" />
  <outline>
    <contour>
      <point x="96" y="536" type="qcurve" smooth="yes" />
      <point x="118" y="508" />
      <point x="185" y="512" />
      <point x="230" y="572" />
      <point x="230" y="666" />
      <point x="185" y="724" />
      <point x="118" y="720" />
      <point x="74" y="658" />
      <point x="74" y="564" />
    </contour>
    <contour>
      <point x="232.5" y="514.5" type="qcurve" smooth="yes" />
      <point x="199" y="473" />
      <point x="105" y="469" />
      <point x="38" y="544" />
      <point x="38" y="674" />
      <point x="105" y="758" />
      <point x="152" y="760" type="qcurve" smooth="yes" />
      <point x="199" y="762" />
      <point x="266" y="686" />
      <point x="266" y="556" />
    </contour>
  </outline>
</glyph>
<glyph name="plusminus" format="2">
  <advance width="850" height="1000" />
  <unicode hex="00B1" />
  <outline>
    <contour>
      <point x="444" y="438" type="line" />
      <point x="444" y="135" type="line" />
      <point x="405" y="134" type="line" />
      <point x="405" y="437" type="line" />
      <point x="125" y="423" type="line" />
      <point x="125" y="470" type="line" />
      <point x="405" y="484" type="line" />
      <point x="405" y="787" type="line" />
      <point x="444" y="788" type="line" />
      <point x="444" y="485" type="line" />
      <point x="725" y="500" type="line" />
      <point x="725" y="453" type="line" />
    </contour>
    <contour>
      <point x="125" y="-6" type="line" />
      <point x="125" y="41" type="line" />
      <point x="725" y="71" type="line" />
      <point x="725" y="24" type="line" />
    </contour>
  </outline>
</glyph>
<glyph name="uni00B2" format="2">
  <advance width="345" height="1000" />
  <unicode hex="00B2" />
  <outline>
    <contour>
      <point x="102" y="528" type="line" />
      <point x="302" y="538" type="line" />
      <point x="302" y="475" type="line" />
      <point x="54" y="463" type="line" />
      <point x="54" y="510" type="line" />
      <point x="141" y="621" type="line" />
      <point x="217" y="721" />
      <point x="217" y="800" type="qcurve" smooth="yes" />
      <point x="217" y="842" />
      <point x="182" y="888" />
      <point x="151" y="887" type="qcurve" />
      <point x="142" y="886" />
      <point x="130" y="883" type="qcurve" />
      <point x="120" y="833" type="line" smooth="yes" />
      <point x="110" y="784" />
      <point x="84" y="782" type="qcurve" />
      <point x="62" y="781" />
      <point x="50" y="805" type="qcurve" />
      <point x="54" y="855" />
      <point x="126" y="915" />
      <point x="178" y="917" type="qcurve" smooth="yes" />
      <point x="234" y="920" />
      <point x="292" y="859" />
      <point x="292" y="807" type="qcurve" smooth="yes" />
      <point x="292" y="784" />
      <point x="279" y="744" />
      <point x="237" y="686" />
      <point x="208" y="651" />
      <point x="166" y="604" type="qcurve" />
    </contour>
  </outline>
</glyph>
<glyph name="uni00B3" format="2">
  <advance width="344" height="1000" />
  <unicode hex="00B3" />
  <outline>
    <contour>
      <point x="133" y="884" type="qcurve" />
      <point x="125" y="839" type="line" />
      <point x="119" y="798" />
      <point x="88" y="796" type="qcurve" smooth="yes" />
      <point x="68" y="795" />
      <point x="60" y="817" type="qcurve" />
      <point x="63" y="863" />
      <point x="127" y="915" />
      <point x="174" y="917" type="qcurve" smooth="yes" />
      <point x="229" y="920" />
      <point x="289" y="864" />
      <point x="289" y="816" type="qcurve" smooth="yes" />
      <point x="289" y="775" />
      <point x="245" y="715" />
      <point x="203" y="702" type="qcurve" />
      <point x="301" y="689" />
      <point x="301" y="593" type="qcurve" smooth="yes" />
      <point x="301" y="534" />
      <point x="227" y="462" />
      <point x="166" y="459" type="qcurve" smooth="yes" />
      <point x="55" y="454" />
      <point x="46" y="553" type="qcurve" />
      <point x="52" y="577" />
      <point x="77" y="579" type="qcurve" />
      <point x="105" y="580" />
      <point x="113" y="533" type="qcurve" smooth="yes" />
      <point x="120" y="488" type="line" />
      <point x="132" y="485" />
      <point x="145" y="486" type="qcurve" smooth="yes" />
      <point x="184" y="488" />
      <point x="225" y="542" />
      <point x="225" y="588" type="qcurve" smooth="yes" />
      <point x="225" y="685" />
      <point x="145" y="681" type="qcurve" smooth="yes" />
      <point x="122" y="680" type="line" />
      <point x="122" y="713" type="line" />
      <point x="141" y="714" type="line" smooth="yes" />
      <point x="177" y="716" />
      <point x="216" y="764" />
      <point x="216" y="808" type="qcurve" smooth="yes" />
      <point x="216" y="848" />
      <point x="183" y="889" />
      <point x="153" y="887" type="qcurve" />
      <point x="140" y="887" />
    </contour>
  </outline>
</glyph>
<glyph name="acute" format="2">
  <advance width="404" height="1000" />
  <unicode hex="00B4" />
  <outline>
    <contour>
      <point x="145" y="640" type="line" />
      <point x="154" y="659" />
      <point x="201" y="758" />
      <point x="218" y="795" type="qcurve" />
      <point x="244" y="857" />
      <point x="275" y="858" type="qcurve" />
      <point x="291" y="859" />
      <point x="314" y="833" />
      <point x="314" y="810" type="qcurve" smooth="yes" />
      <point x="314" y="771" />
      <point x="268" y="730" type="qcurve" />
      <point x="208" y="674" />
      <point x="164" y="625" type="qcurve" />
    </contour>
  </outline>
</glyph>
<glyph name="paragraph" format="2">
  <advance width="872" height="1000" />
  <unicode hex="00B6" />
  <outline>
    <contour>
      <point x="693" y="727" type="line" />
      <point x="619" y="713" type="line" />
      <point x="618" y="613" />
      <point x="618" y="407" type="qcurve" smooth="yes" />
      <point x="618" y="230" type="line" smooth="yes" />
      <point x="618" y="-6" />
      <point x="620" y="-123" type="qcurve" />
      <point x="510" y="-128" type="line" />
      <point x="512" y="-13" />
      <point x="512" y="225" type="qcurve" smooth="yes" />
      <point x="512" y="716" type="line" />
      <point x="452" y="713" type="line" />
      <point x="452" y="145" type="line" />
      <point x="378" y="142" />
      <point x="258" y="198" />
      <point x="180" y="335" />
      <point x="180" y="436" type="qcurve" smooth="yes" />
      <point x="180" y="588" />
      <point x="349" y="745" />
      <point x="490" y="753" type="qcurve" />
      <point x="693" y="763" type="line" />
    </contour>
  </outline>
</glyph>
<glyph name="periodcentered" format="2">
  <advance width="302" height="1000" />
  <unicode hex="00B7" />
  <outline>
    <contour>
      <point x="152" y="284" type="qcurve" smooth="yes" />
      <point x="124" y="283" />
      <point x="85" y="329" />
      <point x="85" y="362" type="qcurve" smooth="yes" />
      <point x="85" y="397" />
      <point x="124" y="448" />
      <point x="152" y="449" type="qcurve" smooth="yes" />
      <point x="179" y="450" />
      <point x="217" y="403" />
      <point x="217" y="368" type="qcurve" smooth="yes" />
      <point x="217" y="335" />
      <point x="179" y="285" />
    </contour>
  </outline>
</glyph>
<glyph name="cedilla" format="2">
  <advance width="404" height="1000" />
  <unicode hex="00B8" />
  <outline>
    <contour>
      <point x="188" y="3" type="line" />
      <point x="181" y="-70" type="line" />
      <point x="228" y="-71" />
      <point x="278" y="-116" />
      <point x="278" y="-152" type="qcurve" smooth="yes" />
      <point x="278" y="-191" />
      <point x="224" y="-246" />
      <point x="175" y="-249" type="qcurve" />
      <point x="143" y="-250" />
      <point x="110" y="-239" type="qcurve" />
      <point x="116" y="-208" type="line" />
      <point x="136" y="-214" />
      <point x="162" y="-213" type="qcurve" smooth="yes" />
      <point x="212" y="-210" />
      <point x="212" y="-154" type="qcurve" smooth="yes" />
      <point x="212" y="-104" />
      <point x="150" y="-98" type="qcurve" />
      <point x="161" y="1" type="line" />
    </contour>
  </outline>
</glyph>
<glyph name="uni00B9" format="2">
  <advance width="352" height="1000" />
  <unicode hex="00B9" />
  <outline>
    <contour>
      <point x="220" y="508" type="line" />
      <point x="292" y="499" type="line" />
      <point x="292" y="475" type="line" />
      <point x="68" y="464" type="line" />
      <point x="68" y="488" type="line" />
      <point x="145" y="504" type="line" />
      <point x="145" y="857" type="line" />
      <point x="82" y="846" type="line" />
      <point x="82" y="874" type="line" />
      <point x="212" y="917" type="line" />
      <point x="220" y="910" type="line" />
    </contour>
  </outline>
</glyph>
<glyph name="ordmasculine" format="2">
  <advance width="346" height="1000" />
  <unicode hex="00BA" />
  <outline>
    <contour>
      <point x="173" y="802" type="qcurve" smooth="yes" />
      <point x="103" y="798" />
      <point x="103" y="639" type="qcurve" smooth="yes" />
      <point x="103" y="482" />
      <point x="173" y="486" type="qcurve" smooth="yes" />
      <point x="244" y="489" />
      <point x="244" y="646" type="qcurve" smooth="yes" />
      <point x="244" y="805" />
    </contour>
    <contour>
      <point x="70.5" y="773.5" type="qcurve" smooth="yes" />
      <point x="113" y="827" />
      <point x="233" y="833" />
      <point x="317" y="735" />
      <point x="317" y="652" type="qcurve" smooth="yes" />
      <point x="317" y="567" />
      <point x="236" y="461" />
      <point x="111" y="455" />
      <point x="28" y="553" />
      <point x="28" y="637" type="qcurve" smooth="yes" />
      <point x="28" y="720" />
    </contour>
  </outline>
</glyph>
<glyph name="guillemotright" format="2">
  <advance width="482" height="1000" />
  <unicode hex="00BB" />
  <outline>
    <contour>
      <point x="267" y="314" type="line" />
      <point x="267" y="254" type="line" />
      <point x="61" y="39" type="line" />
      <point x="45" y="60" type="line" />
      <point x="185" y="280" type="line" />
      <point x="45" y="486" type="line" />
      <point x="61" y="509" type="line" />
    </contour>
    <contour>
      <point x="247" y="518" type="line" />
      <point x="453" y="323" type="line" />
      <point x="453" y="263" type="line" />
      <point x="247" y="48" type="line" />
      <point x="231" y="69" type="line" />
      <point x="371" y="289" type="line" />
      <point x="231" y="495" type="line" />
    </contour>
  </outline>
</glyph>
<glyph name="onequarter" format="2">
  <advance width="809" height="1000" />
  <unicode hex="00BC" />
  <outline>
    <contour>
      <point x="291" y="275" type="line" />
      <point x="68" y="264" type="line" />
      <point x="68" y="288" type="line" />
      <point x="145" y="305" type="line" />
      <point x="145" y="658" type="line" />
      <point x="82" y="648" type="line" />
      <point x="82" y="675" type="line" />
      <point x="212" y="717" type="line" />
      <point x="219" y="710" type="line" />
      <point x="219" y="308" type="line" />
      <point x="291" y="299" type="line" />
    </contour>
    <contour>
      <point x="617" y="752" type="line" />
      <point x="642" y="732" type="line" />
      <point x="230" y="-41" type="line" />
      <point x="205" y="-20" type="line" />
    </contour>
    <contour>
      <point x="473" y="173" type="line" />
      <point x="592" y="179" type="line" />
      <point x="592" y="389" type="line" />
    </contour>
    <contour>
      <point x="714" y="185" type="line" />
      <point x="714" y="132" type="line" />
      <point x="657" y="129" type="line" />
      <point x="657" y="12" type="line" />
      <point x="592" y="9" type="line" />
      <point x="592" y="126" type="line" />
      <point x="442" y="119" type="line" />
      <point x="442" y="163" type="line" />
      <point x="607" y="453" type="line" />
      <point x="657" y="455" type="line" />
      <point x="657" y="182" type="line" />
    </contour>
  </outline>
</glyph>
<glyph name="onehalf" format="2">
  <advance width="803" height="1000" />
  <unicode hex="00BD" />
  <outline>
    <contour>
      <point x="281" y="275" type="line" />
      <point x="57" y="264" type="line" />
      <point x="57" y="288" type="line" />
      <point x="134" y="305" type="line" />
      <point x="134" y="658" type="line" />
      <point x="71" y="647" type="line" />
      <point x="71" y="674" type="line" />
      <point x="201" y="717" type="line" />
      <point x="209" y="710" type="line" />
      <point x="209" y="308" type="line" />
      <point x="281" y="299" type="line" />
    </contour>
    <contour>
      <point x="590" y="751" type="line" />
      <point x="615" y="731" type="line" />
      <point x="203" y="-42" type="line" />
      <point x="178" y="-21" type="line" />
    </contour>
    <contour>
      <point x="532" y="69" type="line" />
      <point x="732" y="79" type="line" />
      <point x="732" y="16" type="line" />
      <point x="484" y="4" type="line" />
      <point x="484" y="51" type="line" />
      <point x="570" y="162" type="line" smooth="yes" />
      <point x="646" y="262" />
      <point x="646" y="340" type="qcurve" smooth="yes" />
      <point x="646" y="382" />
      <point x="612" y="429" />
      <point x="581" y="428" type="qcurve" />
      <point x="571" y="427" />
      <point x="559" y="424" type="qcurve" />
      <point x="549" y="373" type="line" />
      <point x="541" y="325" />
      <point x="513" y="324" type="qcurve" />
      <point x="491" y="322" />
      <point x="480" y="346" type="qcurve" />
      <point x="484" y="396" />
      <point x="557" y="456" />
      <point x="607" y="458" type="qcurve" smooth="yes" />
      <point x="664" y="461" />
      <point x="721" y="400" />
      <point x="721" y="348" type="qcurve" smooth="yes" />
      <point x="721" y="319" />
      <point x="689" y="255" />
      <point x="656" y="214" />
      <point x="606" y="156" type="qcurve" smooth="yes" />
      <point x="600" y="149" />
      <point x="597" y="145" type="qcurve" />
    </contour>
  </outline>
</glyph>
<glyph name="threequarters" format="2">
  <advance width="811" height="1000" />
  <unicode hex="00BE" />
  <outline>
    <contour>
      <point x="176" y="686" type="qcurve" />
      <point x="168" y="640" type="line" smooth="yes" />
      <point x="161" y="599" />
      <point x="131" y="598" type="qcurve" smooth="yes" />
      <point x="112" y="597" />
      <point x="102" y="618" type="qcurve" />
      <point x="105" y="665" />
      <point x="169" y="716" />
      <point x="216" y="719" type="qcurve" smooth="yes" />
      <point x="272" y="722" />
      <point x="332" y="667" />
      <point x="332" y="618" type="qcurve" smooth="yes" />
      <point x="332" y="578" />
      <point x="288" y="517" />
      <point x="245" y="503" type="qcurve" />
      <point x="344" y="491" />
      <point x="344" y="395" type="qcurve" smooth="yes" />
      <point x="344" y="335" />
      <point x="269" y="263" />
      <point x="208" y="260" type="qcurve" smooth="yes" />
      <point x="97" y="255" />
      <point x="88" y="354" type="qcurve" />
      <point x="95" y="379" />
      <point x="119" y="380" type="qcurve" smooth="yes" />
      <point x="134" y="381" />
      <point x="151" y="361" />
      <point x="155" y="336" type="qcurve" smooth="yes" />
      <point x="162" y="289" type="line" />
      <point x="174" y="287" />
      <point x="187" y="287" type="qcurve" />
      <point x="226" y="289" />
      <point x="268" y="343" />
      <point x="268" y="390" type="qcurve" smooth="yes" />
      <point x="268" y="436" />
      <point x="227" y="485" />
      <point x="187" y="483" type="qcurve" smooth="yes" />
      <point x="164" y="482" type="line" />
      <point x="164" y="514" type="line" />
      <point x="184" y="515" type="line" smooth="yes" />
      <point x="220" y="517" />
      <point x="258" y="566" />
      <point x="258" y="610" type="qcurve" smooth="yes" />
      <point x="258" y="649" />
      <point x="225" y="690" />
      <point x="196" y="689" type="qcurve" />
      <point x="183" y="688" />
    </contour>
    <contour>
      <point x="627" y="747" type="line" />
      <point x="652" y="728" type="line" />
      <point x="240" y="-46" type="line" />
      <point x="215" y="-25" type="line" />
    </contour>
    <contour>
      <point x="486" y="173" type="line" />
      <point x="605" y="179" type="line" />
      <point x="605" y="389" type="line" />
    </contour>
    <contour>
      <point x="727" y="185" type="line" />
      <point x="727" y="132" type="line" />
      <point x="670" y="130" type="line" />
      <point x="670" y="13" type="line" />
      <point x="605" y="9" type="line" />
      <point x="605" y="126" type="line" />
      <point x="455" y="119" type="line" />
      <point x="455" y="163" type="line" />
      <point x="620" y="453" type="line" />
      <point x="670" y="456" type="line" />
      <point x="670" y="183" type="line" />
    </contour>
  </outline>
</glyph>
<glyph name="questiondown" format="2">
  <advance width="409" height="1000" />
  <unicode hex="00BF" />
  <outline>
    <contour>
      <point x="296.5" y="428" type="qcurve" smooth="yes" />
      <point x="277" y="403" />
      <point x="221" y="400" />
      <point x="182" y="446" />
      <point x="182" y="480" type="qcurve" smooth="yes" />
      <point x="182" y="515" />
      <point x="221" y="565" />
      <point x="277" y="568" />
      <point x="316" y="522" />
      <point x="316" y="487" type="qcurve" smooth="yes" />
      <point x="316" y="453" />
    </contour>
    <contour>
      <point x="118" y="-57" type="qcurve" />
      <point x="259" y="-76" type="line" smooth="yes" />
      <point x="324" y="-85" />
      <point x="324" y="-140" type="qcurve" smooth="yes" />
      <point x="324" y="-192" />
      <point x="277" y="-209" type="qcurve" />
      <point x="243" y="-202" />
      <point x="173" y="-166" />
      <point x="107" y="-110" />
      <point x="65" y="-26" />
      <point x="65" y="22" type="qcurve" smooth="yes" />
      <point x="65" y="132" />
      <point x="150" y="180" type="qcurve" />
      <point x="186" y="199" type="line" />
      <point x="214" y="216" />
      <point x="232" y="239" />
      <point x="233" y="262" type="qcurve" smooth="yes" />
      <point x="234" y="311" type="line" />
      <point x="259" y="312" type="line" />
      <point x="270" y="272" type="line" />
      <point x="285" y="210" />
      <point x="285" y="194" type="qcurve" smooth="yes" />
      <point x="285" y="164" />
      <point x="253" y="124" />
      <point x="216" y="104" type="qcurve" smooth="yes" />
      <point x="166" y="78" type="line" />
      <point x="132" y="59" />
      <point x="105" y="23" />
      <point x="106" y="-6" type="qcurve" />
      <point x="106" y="-32" />
    </contour>
  </outline>
</glyph>
<glyph name="Agrave" format="2">
  <advance width="601" height="1000" />
  <unicode hex="00C0" />
  <outline>
    <contour>
      <point x="351" y="820" type="line" />
      <point x="338" y="796" type="line" />
      <point x="308" y="811" />
      <point x="211" y="861" type="qcurve" />
      <point x="161" y="885" />
      <point x="161" y="924" type="qcurve" smooth="yes" />
      <point x="161" y="942" />
      <point x="183" y="971" />
      <point x="200" y="971" type="qcurve" />
      <point x="223" y="973" />
      <point x="258" y="931" type="qcurve" smooth="yes" />
    </contour>
    <contour>
      <point x="177" y="270" type="line" />
      <point x="350" y="279" type="line" />
      <point x="262" y="617" type="line" />
    </contour>
    <contour>
      <point x="524" y="55" type="line" />
      <point x="591" y="49" type="line" />
      <point x="591" y="14" type="line" />
      <point x="332" y="1" type="line" />
      <point x="332" y="36" type="line" />
      <point x="410" y="51" type="line" />
      <point x="360" y="242" type="line" />
      <point x="168" y="233" type="line" />
      <point x="121" y="37" type="line" />
      <point x="200" y="29" type="line" />
      <point x="200" y="-6" type="line" />
      <point x="12" y="-15" type="line" />
      <point x="12" y="20" type="line" />
      <point x="81" y="35" type="line" />
      <point x="264" y="743" type="line" />
      <point x="333" y="746" type="line" />
    </contour>
  </outline>
</glyph>
<glyph name="Aacute" format="2">
  <advance width="601" height="1000" />
  <unicode hex="00C1" />
  <outline>
    <contour>
      <point x="256" y="792" type="qcurve" />
      <point x="244" y="815" type="line" />
      <point x="263" y="840" />
      <point x="331" y="930" />
      <point x="334" y="934" type="qcurve" smooth="yes" />
      <point x="369" y="980" />
      <point x="394" y="981" type="qcurve" smooth="yes" />
      <point x="411" y="982" />
      <point x="432" y="956" />
      <point x="432" y="938" type="qcurve" smooth="yes" />
      <point x="432" y="901" />
      <point x="384" y="871" type="qcurve" smooth="yes" />
      <point x="320" y="830" />
    </contour>
    <contour>
      <point x="177" y="270" type="line" />
      <point x="350" y="279" type="line" />
      <point x="262" y="617" type="line" />
    </contour>
    <contour>
      <point x="524" y="55" type="line" />
      <point x="591" y="49" type="line" />
      <point x="591" y="14" type="line" />
      <point x="332" y="1" type="line" />
      <point x="332" y="36" type="line" />
      <point x="410" y="51" type="line" />
      <point x="360" y="242" type="line" />
      <point x="168" y="233" type="line" />
      <point x="121" y="37" type="line" />
      <point x="200" y="29" type="line" />
      <point x="200" y="-6" type="line" />
      <point x="12" y="-15" type="line" />
      <point x="12" y="20" type="line" />
      <point x="81" y="35" type="line" />
      <point x="264" y="743" type="line" />
      <point x="333" y="746" type="line" />
    </contour>
  </outline>
</glyph>
<glyph name="Atilde" format="2">
  <advance width="601" height="1000" />
  <unicode hex="00C3" />
  <outline>
    <contour>
      <point x="436" y="955" type="qcurve" />
      <point x="456" y="949" type="line" />
      <point x="440" y="801" />
      <point x="361" y="797" type="qcurve" smooth="yes" />
      <point x="327" y="796" />
      <point x="292" y="829" type="qcurve" />
      <point x="290" y="831" />
      <point x="275" y="847" />
      <point x="268" y="853" />
      <point x="254" y="864" />
      <point x="244" y="869" />
      <point x="232" y="872" />
      <point x="225" y="872" type="qcurve" />
      <point x="184" y="870" />
      <point x="163" y="793" type="qcurve" />
      <point x="142" y="799" type="line" />
      <point x="151" y="869" />
      <point x="200" y="948" />
      <point x="239" y="950" type="qcurve" smooth="yes" />
      <point x="272" y="952" />
      <point x="308" y="918" type="qcurve" />
      <point x="311" y="915" />
      <point x="328" y="898" />
      <point x="337" y="890" />
      <point x="352" y="880" />
      <point x="367" y="876" />
      <point x="375" y="876" type="qcurve" />
      <point x="416" y="878" />
    </contour>
    <contour>
      <point x="177" y="270" type="line" />
      <point x="350" y="279" type="line" />
      <point x="262" y="617" type="line" />
    </contour>
    <contour>
      <point x="524" y="55" type="line" />
      <point x="591" y="49" type="line" />
      <point x="591" y="14" type="line" />
      <point x="332" y="1" type="line" />
      <point x="332" y="36" type="line" />
      <point x="410" y="51" type="line" />
      <point x="360" y="242" type="line" />
      <point x="168" y="233" type="line" />
      <point x="121" y="37" type="line" />
      <point x="200" y="29" type="line" />
      <point x="200" y="-6" type="line" />
      <point x="12" y="-15" type="line" />
      <point x="12" y="20" type="line" />
      <point x="81" y="35" type="line" />
      <point x="264" y="743" type="line" />
      <point x="333" y="746" type="line" />
    </contour>
  </outline>
</glyph>
<glyph name="Adieresis" format="2">
  <advance width="601" height="1000" />
  <unicode hex="00C4" />
  <outline>
    <contour>
      <point x="446" y="837.5" type="qcurve" smooth="yes" />
      <point x="430" y="819" />
      <point x="384" y="817" />
      <point x="352" y="851" />
      <point x="352" y="880" type="qcurve" smooth="yes" />
      <point x="352" y="910" />
      <point x="384" y="948" />
      <point x="430" y="950" />
      <point x="462" y="915" />
      <point x="462" y="885" type="qcurve" smooth="yes" />
      <point x="462" y="856" />
    </contour>
    <contour>
      <point x="196" y="807" type="qcurve" smooth="yes" />
      <point x="174" y="806" />
      <point x="141" y="840" />
      <point x="141" y="898" />
      <point x="174" y="937" />
      <point x="196" y="938" type="qcurve" smooth="yes" />
      <point x="220" y="939" />
      <point x="252" y="905" />
      <point x="252" y="875" type="qcurve" smooth="yes" />
      <point x="252" y="846" />
      <point x="220" y="808" />
    </contour>
    <contour>
      <point x="177" y="270" type="line" />
      <point x="350" y="279" type="line" />
      <point x="262" y="617" type="line" />
    </contour>
    <contour>
      <point x="524" y="55" type="line" />
      <point x="591" y="49" type="line" />
      <point x="591" y="14" type="line" />
      <point x="332" y="1" type="line" />
      <point x="332" y="36" type="line" />
      <point x="410" y="51" type="line" />
      <point x="360" y="242" type="line" />
      <point x="168" y="233" type="line" />
      <point x="121" y="37" type="line" />
      <point x="200" y="29" type="line" />
      <point x="200" y="-6" type="line" />
      <point x="12" y="-15" type="line" />
      <point x="12" y="20" type="line" />
      <point x="81" y="35" type="line" />
      <point x="264" y="743" type="line" />
      <point x="333" y="746" type="line" />
    </contour>
  </outline>
</glyph>
<glyph name="Aring" format="2">
  <advance width="601" height="1000" />
  <unicode hex="00C5" />
  <outline>
    <contour>
      <point x="340" y="948.5" type="qcurve" smooth="yes" />
      <point x="325" y="968" />
      <point x="279" y="965" />
      <point x="250" y="924" />
      <point x="250" y="864" />
      <point x="279" y="826" />
      <point x="302" y="827" type="qcurve" />
      <point x="326" y="829" />
      <point x="355" y="869" />
      <point x="355" y="929" />
    </contour>
    <contour>
      <point x="302" y="791" type="qcurve" />
      <point x="266" y="790" />
      <point x="216" y="845" />
      <point x="216" y="939" />
      <point x="266" y="1001" />
      <point x="302" y="1002" type="qcurve" />
      <point x="339" y="1004" />
      <point x="390" y="950" />
      <point x="390" y="901" type="qcurve" smooth="yes" />
      <point x="390" y="854" />
      <point x="339" y="793" />
    </contour>
    <contour>
      <point x="177" y="270" type="line" />
      <point x="350" y="279" type="line" />
      <point x="262" y="617" type="line" />
    </contour>
    <contour>
      <point x="524" y="55" type="line" />
      <point x="591" y="49" type="line" />
      <point x="591" y="14" type="line" />
      <point x="332" y="1" type="line" />
      <point x="332" y="36" type="line" />
      <point x="410" y="51" type="line" />
      <point x="360" y="242" type="line" />
      <point x="168" y="233" type="line" />
      <point x="121" y="37" type="line" />
      <point x="200" y="29" type="line" />
      <point x="200" y="-6" type="line" />
      <point x="12" y="-15" type="line" />
      <point x="12" y="20" type="line" />
      <point x="81" y="35" type="line" />
      <point x="264" y="743" type="line" />
      <point x="333" y="746" type="line" />
    </contour>
  </outline>
</glyph>
<glyph name="AE" format="2">
  <advance width="813" height="1000" />
  <unicode hex="00C6" />
  <outline>
    <contour>
      <point x="378" y="689" type="line" />
      <point x="231" y="313" type="line" />
      <point x="385" y="321" type="line" />
      <point x="385" y="690" type="line" />
    </contour>
    <contour>
      <point x="729" y="217" type="line" />
      <point x="773" y="219" type="line" />
      <point x="772" y="18" type="line" />
      <point x="309" y="-5" type="line" />
      <point x="309" y="30" type="line" />
      <point x="384" y="43" type="line" />
      <point x="385" y="124" />
      <point x="385" y="284" type="qcurve" />
      <point x="217" y="275" type="line" />
      <point x="122" y="33" type="line" />
      <point x="201" y="25" type="line" />
      <point x="201" y="-10" type="line" />
      <point x="10" y="-20" type="line" />
      <point x="10" y="15" type="line" />
      <point x="84" y="31" type="line" />
      <point x="345" y="691" type="line" />
      <point x="274" y="699" type="line" />
      <point x="274" y="735" type="line" />
      <point x="755" y="759" type="line" />
      <point x="757" y="563" type="line" />
      <point x="713" y="561" type="line" />
      <point x="682" y="714" type="line" />
      <point x="498" y="704" type="line" />
      <point x="497" y="606" />
      <point x="497" y="401" type="qcurve" />
      <point x="617" y="407" type="line" />
      <point x="629" y="517" type="line" />
      <point x="666" y="519" type="line" />
      <point x="666" y="267" type="line" />
      <point x="629" y="265" type="line" />
      <point x="617" y="369" type="line" />
      <point x="497" y="363" type="line" />
      <point x="497" y="147" />
      <point x="498" y="45" type="qcurve" />
      <point x="698" y="55" type="line" />
    </contour>
  </outline>
</glyph>
<glyph name="Ccedilla" format="2">
  <advance width="578" height="1000" />
  <unicode hex="00C7" />
  <outline>
    <contour>
      <point x="350" y="-16" type="line" />
      <point x="346" y="-67" type="line" />
      <point x="392" y="-68" />
      <point x="442" y="-113" />
      <point x="442" y="-149" type="qcurve" smooth="yes" />
      <point x="442" y="-188" />
      <point x="388" y="-243" />
      <point x="339" y="-246" type="qcurve" />
      <point x="307" y="-247" />
      <point x="274" y="-236" type="qcurve" />
      <point x="280" y="-205" type="line" />
      <point x="301" y="-211" />
      <point x="327" y="-209" type="qcurve" />
      <point x="377" y="-207" />
      <point x="377" y="-151" type="qcurve" smooth="yes" />
      <point x="377" y="-101" />
      <point x="314" y="-95" type="qcurve" />
      <point x="323" y="-16" type="line" />
      <point x="200" y="-9" />
      <point x="48" y="189" />
      <point x="48" y="359" type="qcurve" smooth="yes" />
      <point x="48" y="540" />
      <point x="227" y="757" />
      <point x="361" y="763" type="qcurve" />
      <point x="450" y="768" />
      <point x="530" y="716" type="qcurve" />
      <point x="528" y="543" type="line" />
      <point x="482" y="540" type="line" />
      <point x="447" y="710" type="line" />
      <point x="414" y="725" />
      <point x="375" y="723" type="qcurve" smooth="yes" />
      <point x="282" y="718" />
      <point x="167" y="533" />
      <point x="167" y="364" type="qcurve" smooth="yes" />
      <point x="167" y="193" />
      <point x="282" y="21" />
      <point x="375" y="26" type="qcurve" smooth="yes" />
      <point x="415" y="28" />
      <point x="454" y="49" type="qcurve" />
      <point x="489" y="220" type="line" />
      <point x="535" y="222" type="line" />
      <point x="536" y="50" type="line" />
      <point x="455" y="-11" />
      <point x="358" y="-16" type="qcurve" />
    </contour>
  </outline>
</glyph>
<glyph name="Egrave" format="2">
  <advance width="551" height="1000" />
  <unicode hex="00C8" />
  <outline>
    <contour>
      <point x="335" y="820" type="qcurve" />
      <point x="322" y="797" type="line" />
      <point x="292" y="811" />
      <point x="195" y="861" type="qcurve" smooth="yes" />
      <point x="145" y="886" />
      <point x="145" y="925" type="qcurve" smooth="yes" />
      <point x="145" y="943" />
      <point x="167" y="971" />
      <point x="183" y="972" type="qcurve" smooth="yes" />
      <point x="206" y="973" />
      <point x="243" y="932" type="qcurve" />
      <point x="301" y="860" />
    </contour>
    <contour>
      <point x="467" y="210" type="line" />
      <point x="511" y="212" type="line" />
      <point x="508" y="11" type="line" />
      <point x="45" y="-12" type="line" />
      <point x="45" y="23" type="line" />
      <point x="121" y="36" type="line" />
      <point x="123" y="135" />
      <point x="123" y="338" type="qcurve" smooth="yes" />
      <point x="123" y="387" type="line" smooth="yes" />
      <point x="123" y="588" />
      <point x="121" y="689" type="qcurve" />
      <point x="45" y="694" type="line" />
      <point x="45" y="730" type="line" />
      <point x="492" y="752" type="line" />
      <point x="493" y="556" type="line" />
      <point x="450" y="554" type="line" />
      <point x="419" y="707" type="line" />
      <point x="236" y="698" type="line" />
      <point x="234" y="599" />
      <point x="234" y="394" type="qcurve" />
      <point x="354" y="400" type="line" />
      <point x="366" y="510" type="line" />
      <point x="403" y="512" type="line" />
      <point x="403" y="260" type="line" />
      <point x="366" y="258" type="line" />
      <point x="355" y="362" type="line" />
      <point x="234" y="356" type="line" />
      <point x="234" y="140" />
      <point x="236" y="39" type="qcurve" />
      <point x="435" y="49" type="line" />
    </contour>
  </outline>
</glyph>
<glyph name="Ecircumflex" format="2">
  <advance width="551" height="1000" />
  <unicode hex="00CA" />
  <outline>
    <contour>
      <point x="303" y="876" type="line" />
      <point x="171" y="780" type="line" />
      <point x="157" y="802" type="line" />
      <point x="279" y="965" type="line" />
      <point x="324" y="967" type="line" />
      <point x="447" y="816" type="line" />
      <point x="435" y="793" type="line" />
    </contour>
    <contour>
      <point x="467" y="210" type="line" />
      <point x="511" y="212" type="line" />
      <point x="508" y="11" type="line" />
      <point x="45" y="-12" type="line" />
      <point x="45" y="23" type="line" />
      <point x="121" y="36" type="line" />
      <point x="123" y="135" />
      <point x="123" y="338" type="qcurve" smooth="yes" />
      <point x="123" y="387" type="line" smooth="yes" />
      <point x="123" y="588" />
      <point x="121" y="689" type="qcurve" />
      <point x="45" y="694" type="line" />
      <point x="45" y="730" type="line" />
      <point x="492" y="752" type="line" />
      <point x="493" y="556" type="line" />
      <point x="450" y="554" type="line" />
      <point x="419" y="707" type="line" />
      <point x="236" y="698" type="line" />
      <point x="234" y="599" />
      <point x="234" y="394" type="qcurve" />
      <point x="354" y="400" type="line" />
      <point x="366" y="510" type="line" />
      <point x="403" y="512" type="line" />
      <point x="403" y="260" type="line" />
      <point x="366" y="258" type="line" />
      <point x="355" y="362" type="line" />
      <point x="234" y="356" type="line" />
      <point x="234" y="140" />
      <point x="236" y="39" type="qcurve" />
      <point x="435" y="49" type="line" />
    </contour>
  </outline>
</glyph>
<glyph name="Edieresis" format="2">
  <advance width="551" height="1000" />
  <unicode hex="00CB" />
  <outline>
    <contour>
      <point x="398" y="819" type="qcurve" smooth="yes" />
      <point x="375" y="818" />
      <point x="343" y="852" />
      <point x="343" y="881" type="qcurve" smooth="yes" />
      <point x="343" y="911" />
      <point x="375" y="949" />
      <point x="398" y="950" type="qcurve" smooth="yes" />
      <point x="421" y="951" />
      <point x="453" y="916" />
      <point x="453" y="886" type="qcurve" smooth="yes" />
      <point x="453" y="857" />
      <point x="421" y="820" />
    </contour>
    <contour>
      <point x="187" y="808" type="qcurve" smooth="yes" />
      <point x="166" y="807" />
      <point x="133" y="841" />
      <point x="133" y="870" type="qcurve" smooth="yes" />
      <point x="133" y="900" />
      <point x="165" y="938" />
      <point x="187" y="939" type="qcurve" smooth="yes" />
      <point x="211" y="940" />
      <point x="243" y="906" />
      <point x="243" y="876" type="qcurve" smooth="yes" />
      <point x="243" y="847" />
      <point x="211" y="809" />
    </contour>
    <contour>
      <point x="467" y="210" type="line" />
      <point x="511" y="212" type="line" />
      <point x="508" y="11" type="line" />
      <point x="45" y="-12" type="line" />
      <point x="45" y="23" type="line" />
      <point x="121" y="36" type="line" />
      <point x="123" y="135" />
      <point x="123" y="338" type="qcurve" smooth="yes" />
      <point x="123" y="387" type="line" smooth="yes" />
      <point x="123" y="588" />
      <point x="121" y="689" type="qcurve" />
      <point x="45" y="694" type="line" />
      <point x="45" y="730" type="line" />
      <point x="492" y="752" type="line" />
      <point x="493" y="556" type="line" />
      <point x="450" y="554" type="line" />
      <point x="419" y="707" type="line" />
      <point x="236" y="698" type="line" />
      <point x="234" y="599" />
      <point x="234" y="394" type="qcurve" />
      <point x="354" y="400" type="line" />
      <point x="366" y="510" type="line" />
      <point x="403" y="512" type="line" />
      <point x="403" y="260" type="line" />
      <point x="366" y="258" type="line" />
      <point x="355" y="362" type="line" />
      <point x="234" y="356" type="line" />
      <point x="234" y="140" />
      <point x="236" y="39" type="qcurve" />
      <point x="435" y="49" type="line" />
    </contour>
  </outline>
</glyph>
<glyph name="Igrave" format="2">
  <advance width="356" height="1000" />
  <unicode hex="00CC" />
  <outline>
    <contour>
      <point x="235" y="821" type="qcurve" />
      <point x="222" y="797" type="line" />
      <point x="193" y="812" />
      <point x="95" y="862" type="qcurve" smooth="yes" />
      <point x="46" y="887" />
      <point x="46" y="926" type="qcurve" smooth="yes" />
      <point x="46" y="944" />
      <point x="67" y="972" />
      <point x="84" y="972" type="qcurve" />
      <point x="106" y="974" />
      <point x="143" y="932" type="qcurve" />
      <point x="172" y="897" />
    </contour>
    <contour>
      <point x="312" y="713" type="line" />
      <point x="236" y="700" type="line" />
      <point x="234" y="600" />
      <point x="234" y="398" type="qcurve" smooth="yes" />
      <point x="234" y="349" type="line" smooth="yes" />
      <point x="234" y="147" />
      <point x="236" y="47" type="qcurve" />
      <point x="312" y="42" type="line" />
      <point x="312" y="7" type="line" />
      <point x="45" y="-6" type="line" />
      <point x="45" y="29" type="line" />
      <point x="121" y="41" type="line" />
      <point x="122" y="140" />
      <point x="122" y="343" type="qcurve" smooth="yes" />
      <point x="122" y="392" type="line" smooth="yes" />
      <point x="122" y="593" />
      <point x="121" y="694" type="qcurve" />
      <point x="45" y="700" type="line" />
      <point x="45" y="736" type="line" />
      <point x="312" y="749" type="line" />
    </contour>
  </outline>
</glyph>
<glyph name="Iacute" format="2">
  <advance width="355" height="1000" />
  <unicode hex="00CD" />
  <outline>
    <contour>
      <point x="141" y="794" type="qcurve" />
      <point x="129" y="816" type="line" />
      <point x="147" y="841" />
      <point x="215" y="932" />
      <point x="218" y="936" type="qcurve" smooth="yes" />
      <point x="253" y="981" />
      <point x="278" y="983" type="qcurve" smooth="yes" />
      <point x="295" y="984" />
      <point x="317" y="958" />
      <point x="317" y="940" type="qcurve" smooth="yes" />
      <point x="317" y="903" />
      <point x="268" y="872" type="qcurve" smooth="yes" />
      <point x="193" y="824" />
    </contour>
    <contour>
      <point x="312" y="749" type="line" />
      <point x="312" y="713" type="line" />
      <point x="236" y="701" type="line" />
      <point x="233" y="600" />
      <point x="233" y="398" type="qcurve" smooth="yes" />
      <point x="233" y="349" type="line" smooth="yes" />
      <point x="233" y="147" />
      <point x="236" y="48" type="qcurve" />
      <point x="312" y="42" type="line" />
      <point x="312" y="7" type="line" />
      <point x="45" y="-6" type="line" />
      <point x="45" y="29" type="line" />
      <point x="121" y="42" type="line" />
      <point x="122" y="141" />
      <point x="122" y="344" type="qcurve" smooth="yes" />
      <point x="122" y="393" type="line" smooth="yes" />
      <point x="122" y="594" />
      <point x="121" y="695" type="qcurve" />
      <point x="45" y="700" type="line" />
      <point x="45" y="736" type="line" />
    </contour>
  </outline>
</glyph>
<glyph name="Icircumflex" format="2">
  <advance width="350" height="1000" />
  <unicode hex="00CE" />
  <outline>
    <contour>
      <point x="175" y="875" type="line" />
      <point x="43" y="780" type="line" />
      <point x="30" y="801" type="line" />
      <point x="153" y="964" type="line" />
      <point x="198" y="966" type="line" />
      <point x="320" y="815" type="line" />
      <point x="307" y="793" type="line" />
    </contour>
    <contour>
      <point x="309" y="749" type="line" />
      <point x="309" y="713" type="line" />
      <point x="233" y="700" type="line" />
      <point x="231" y="600" />
      <point x="231" y="398" type="qcurve" smooth="yes" />
      <point x="231" y="349" type="line" smooth="yes" />
      <point x="231" y="147" />
      <point x="233" y="47" type="qcurve" />
      <point x="309" y="42" type="line" />
      <point x="309" y="7" type="line" />
      <point x="42" y="-6" type="line" />
      <point x="42" y="29" type="line" />
      <point x="118" y="41" type="line" />
      <point x="119" y="140" />
      <point x="119" y="343" type="qcurve" smooth="yes" />
      <point x="119" y="392" type="line" smooth="yes" />
      <point x="119" y="593" />
      <point x="118" y="694" type="qcurve" />
      <point x="42" y="700" type="line" />
      <point x="42" y="736" type="line" />
    </contour>
  </outline>
</glyph>
<glyph name="Idieresis" format="2">
  <advance width="343" height="1000" />
  <unicode hex="00CF" />
  <outline>
    <contour>
      <point x="123" y="875" type="qcurve" smooth="yes" />
      <point x="123" y="846" />
      <point x="90" y="809" />
      <point x="67" y="807" type="qcurve" />
      <point x="45" y="806" />
      <point x="12" y="841" />
      <point x="12" y="870" type="qcurve" smooth="yes" />
      <point x="12" y="900" />
      <point x="44" y="937" />
      <point x="67" y="938" type="qcurve" />
      <point x="90" y="940" />
      <point x="123" y="905" />
    </contour>
    <contour>
      <point x="306" y="748" type="line" />
      <point x="306" y="712" type="line" />
      <point x="230" y="700" type="line" />
      <point x="227" y="599" />
      <point x="227" y="397" type="qcurve" smooth="yes" />
      <point x="227" y="348" type="line" smooth="yes" />
      <point x="227" y="146" />
      <point x="230" y="47" type="qcurve" />
      <point x="306" y="41" type="line" />
      <point x="306" y="6" type="line" />
      <point x="39" y="-7" type="line" />
      <point x="39" y="28" type="line" />
      <point x="115" y="41" type="line" />
      <point x="116" y="140" />
      <point x="116" y="343" type="qcurve" smooth="yes" />
      <point x="116" y="392" type="line" smooth="yes" />
      <point x="116" y="593" />
      <point x="115" y="694" type="qcurve" />
      <point x="39" y="699" type="line" />
      <point x="39" y="735" type="line" />
    </contour>
    <contour>
      <point x="277" y="949" type="qcurve" smooth="yes" />
      <point x="300" y="950" />
      <point x="332" y="916" />
      <point x="332" y="886" type="qcurve" smooth="yes" />
      <point x="332" y="857" />
      <point x="300" y="819" />
      <point x="277" y="818" type="qcurve" smooth="yes" />
      <point x="255" y="817" />
      <point x="223" y="851" />
      <point x="223" y="880" type="qcurve" smooth="yes" />
      <point x="223" y="910" />
      <point x="255" y="948" />
    </contour>
  </outline>
</glyph>
<glyph name="Ntilde" format="2">
  <advance width="666" height="1000" />
  <unicode hex="00D1" />
  <outline>
    <contour>
      <point x="470" y="953" type="qcurve" />
      <point x="490" y="945" type="line" />
      <point x="474" y="800" />
      <point x="394" y="796" type="qcurve" smooth="yes" />
      <point x="361" y="794" />
      <point x="326" y="827" type="qcurve" />
      <point x="325" y="829" />
      <point x="307" y="845" />
      <point x="302" y="849" />
      <point x="287" y="861" />
      <point x="278" y="865" />
      <point x="265" y="868" />
      <point x="258" y="868" type="qcurve" />
      <point x="217" y="866" />
      <point x="197" y="789" type="qcurve" />
      <point x="176" y="797" type="line" />
      <point x="185" y="866" />
      <point x="233" y="945" />
      <point x="272" y="947" type="qcurve" smooth="yes" />
      <point x="306" y="948" />
      <point x="341" y="916" type="qcurve" />
      <point x="342" y="914" />
      <point x="363" y="894" />
      <point x="370" y="889" />
      <point x="387" y="877" />
      <point x="401" y="874" />
      <point x="409" y="874" type="qcurve" />
      <point x="449" y="876" />
    </contour>
    <contour>
      <point x="629" y="757" type="line" />
      <point x="629" y="721" type="line" />
      <point x="556" y="705" type="line" />
      <point x="552" y="8" type="line" />
      <point x="497" y="5" type="line" />
      <point x="143" y="609" type="line" />
      <point x="145" y="39" type="line" />
      <point x="248" y="31" type="line" />
      <point x="248" y="-4" type="line" />
      <point x="32" y="-14" type="line" />
      <point x="32" y="21" type="line" />
      <point x="106" y="36" type="line" />
      <point x="110" y="665" type="line" />
      <point x="97" y="686" type="line" />
      <point x="37" y="692" type="line" />
      <point x="37" y="728" type="line" />
      <point x="205" y="736" type="line" />
      <point x="519" y="208" type="line" />
      <point x="517" y="702" type="line" />
      <point x="413" y="711" type="line" />
      <point x="413" y="747" type="line" />
    </contour>
  </outline>
</glyph>
<glyph name="Ograve" format="2">
  <advance width="648" height="1000" />
  <unicode hex="00D2" />
  <outline>
    <contour>
      <point x="380" y="823" type="qcurve" />
      <point x="368" y="800" type="line" />
      <point x="348" y="809" />
      <point x="241" y="863" type="qcurve" smooth="yes" />
      <point x="191" y="889" />
      <point x="191" y="928" type="qcurve" smooth="yes" />
      <point x="191" y="946" />
      <point x="213" y="975" />
      <point x="229" y="976" type="qcurve" smooth="yes" />
      <point x="252" y="977" />
      <point x="288" y="935" type="qcurve" />
      <point x="304" y="914" />
      <point x="368" y="839" />
    </contour>
    <contour>
      <point x="167" y="363" type="qcurve" smooth="yes" />
      <point x="167" y="208" />
      <point x="247" y="18" />
      <point x="400" y="26" />
      <point x="481" y="225" />
      <point x="481" y="379" type="qcurve" smooth="yes" />
      <point x="481" y="531" />
      <point x="400" y="723" />
      <point x="247" y="715" />
      <point x="167" y="516" />
    </contour>
    <contour>
      <point x="324" y="760" type="qcurve" smooth="yes" />
      <point x="439" y="766" />
      <point x="600" y="567" />
      <point x="600" y="385" type="qcurve" smooth="yes" />
      <point x="600" y="294" />
      <point x="555" y="142" />
      <point x="478" y="41" />
      <point x="379" y="-16" />
      <point x="268" y="-21" />
      <point x="169" y="25" />
      <point x="92" y="117" />
      <point x="47" y="264" />
      <point x="47" y="357" type="qcurve" smooth="yes" />
      <point x="47" y="537" />
      <point x="209" y="755" />
    </contour>
  </outline>
</glyph>
<glyph name="Oacute" format="2">
  <advance width="648" height="1000" />
  <unicode hex="00D3" />
  <outline>
    <contour>
      <point x="274" y="817" type="line" />
      <point x="289" y="838" />
      <point x="351" y="918" />
      <point x="365" y="937" type="qcurve" smooth="yes" />
      <point x="400" y="984" />
      <point x="424" y="985" type="qcurve" smooth="yes" />
      <point x="440" y="986" />
      <point x="463" y="959" />
      <point x="463" y="941" type="qcurve" smooth="yes" />
      <point x="463" y="903" />
      <point x="414" y="874" type="qcurve" />
      <point x="351" y="833" />
      <point x="286" y="796" type="qcurve" />
    </contour>
    <contour>
      <point x="167" y="363" type="qcurve" smooth="yes" />
      <point x="167" y="208" />
      <point x="247" y="18" />
      <point x="400" y="26" />
      <point x="481" y="225" />
      <point x="481" y="379" type="qcurve" smooth="yes" />
      <point x="481" y="531" />
      <point x="400" y="723" />
      <point x="247" y="715" />
      <point x="167" y="516" />
    </contour>
    <contour>
      <point x="324" y="760" type="qcurve" smooth="yes" />
      <point x="439" y="766" />
      <point x="600" y="567" />
      <point x="600" y="385" type="qcurve" smooth="yes" />
      <point x="600" y="294" />
      <point x="555" y="142" />
      <point x="478" y="41" />
      <point x="379" y="-16" />
      <point x="268" y="-21" />
      <point x="169" y="25" />
      <point x="92" y="117" />
      <point x="47" y="264" />
      <point x="47" y="357" type="qcurve" smooth="yes" />
      <point x="47" y="537" />
      <point x="209" y="755" />
    </contour>
  </outline>
</glyph>
<glyph name="Otilde" format="2">
  <advance width="648" height="1000" />
  <unicode hex="00D5" />
  <outline>
    <contour>
      <point x="167" y="805" type="line" />
      <point x="175" y="875" />
      <point x="224" y="953" />
      <point x="263" y="955" type="qcurve" smooth="yes" />
      <point x="297" y="957" />
      <point x="332" y="925" type="qcurve" />
      <point x="333" y="923" />
      <point x="347" y="909" />
      <point x="352" y="905" />
      <point x="364" y="894" />
      <point x="372" y="891" />
      <point x="383" y="884" />
      <point x="393" y="883" />
      <point x="399" y="883" type="qcurve" />
      <point x="440" y="885" />
      <point x="460" y="962" type="qcurve" />
      <point x="481" y="954" type="line" />
      <point x="464" y="808" />
      <point x="385" y="804" type="qcurve" smooth="yes" />
      <point x="352" y="803" />
      <point x="316" y="836" type="qcurve" />
      <point x="315" y="838" />
      <point x="301" y="850" />
      <point x="296" y="855" />
      <point x="284" y="865" />
      <point x="276" y="869" />
      <point x="265" y="875" />
      <point x="255" y="877" />
      <point x="249" y="877" type="qcurve" />
      <point x="208" y="875" />
      <point x="187" y="797" type="qcurve" />
    </contour>
    <contour>
      <point x="167" y="363" type="qcurve" smooth="yes" />
      <point x="167" y="208" />
      <point x="247" y="18" />
      <point x="400" y="26" />
      <point x="481" y="225" />
      <point x="481" y="379" type="qcurve" smooth="yes" />
      <point x="481" y="531" />
      <point x="400" y="723" />
      <point x="247" y="715" />
      <point x="167" y="516" />
    </contour>
    <contour>
      <point x="324" y="760" type="qcurve" smooth="yes" />
      <point x="439" y="766" />
      <point x="600" y="567" />
      <point x="600" y="385" type="qcurve" smooth="yes" />
      <point x="600" y="294" />
      <point x="555" y="142" />
      <point x="478" y="41" />
      <point x="379" y="-16" />
      <point x="268" y="-21" />
      <point x="169" y="25" />
      <point x="92" y="117" />
      <point x="47" y="264" />
      <point x="47" y="357" type="qcurve" smooth="yes" />
      <point x="47" y="537" />
      <point x="209" y="755" />
    </contour>
  </outline>
</glyph>
<glyph name="Odieresis" format="2">
  <advance width="648" height="1000" />
  <unicode hex="00D6" />
  <outline>
    <contour>
      <point x="219" y="808" type="qcurve" smooth="yes" />
      <point x="196" y="807" />
      <point x="164" y="841" />
      <point x="164" y="870" type="qcurve" smooth="yes" />
      <point x="164" y="900" />
      <point x="196" y="938" />
      <point x="219" y="939" type="qcurve" smooth="yes" />
      <point x="242" y="940" />
      <point x="274" y="906" />
      <point x="274" y="876" type="qcurve" smooth="yes" />
      <point x="274" y="847" />
      <point x="242" y="809" />
    </contour>
    <contour>
      <point x="468" y="838.5" type="qcurve" smooth="yes" />
      <point x="452" y="820" />
      <point x="406" y="817" />
      <point x="374" y="852" />
      <point x="374" y="881" type="qcurve" smooth="yes" />
      <point x="374" y="911" />
      <point x="406" y="948" />
      <point x="452" y="951" />
      <point x="484" y="916" />
      <point x="484" y="886" type="qcurve" smooth="yes" />
      <point x="484" y="857" />
    </contour>
    <contour>
      <point x="167" y="363" type="qcurve" smooth="yes" />
      <point x="167" y="208" />
      <point x="247" y="18" />
      <point x="400" y="26" />
      <point x="481" y="225" />
      <point x="481" y="379" type="qcurve" smooth="yes" />
      <point x="481" y="531" />
      <point x="400" y="723" />
      <point x="247" y="715" />
      <point x="167" y="516" />
    </contour>
    <contour>
      <point x="324" y="760" type="qcurve" smooth="yes" />
      <point x="439" y="766" />
      <point x="600" y="567" />
      <point x="600" y="385" type="qcurve" smooth="yes" />
      <point x="600" y="294" />
      <point x="555" y="142" />
      <point x="478" y="41" />
      <point x="379" y="-16" />
      <point x="268" y="-21" />
      <point x="169" y="25" />
      <point x="92" y="117" />
      <point x="47" y="264" />
      <point x="47" y="357" type="qcurve" smooth="yes" />
      <point x="47" y="537" />
      <point x="209" y="755" />
    </contour>
  </outline>
</glyph>
<glyph name="multiply" format="2">
  <advance width="877" height="1000" />
  <unicode hex="00D7" />
  <outline>
    <contour>
      <point x="439" y="334" type="line" />
      <point x="221" y="50" type="line" />
      <point x="193" y="84" type="line" />
      <point x="412" y="367" type="line" />
      <point x="193" y="629" type="line" />
      <point x="220" y="664" type="line" />
      <point x="439" y="402" type="line" />
      <point x="657" y="686" type="line" />
      <point x="684" y="653" type="line" />
      <point x="466" y="369" type="line" />
      <point x="684" y="108" type="line" />
      <point x="656" y="72" type="line" />
    </contour>
  </outline>
</glyph>
<glyph name="Oslash" format="2">
  <advance width="648" height="1000" />
  <unicode hex="00D8" />
  <outline>
    <contour>
      <point x="463" y="560" type="qcurve" />
      <point x="198" y="135" type="line" />
      <point x="240" y="18" />
      <point x="324" y="22" type="qcurve" smooth="yes" />
      <point x="400" y="26" />
      <point x="481" y="225" />
      <point x="481" y="379" type="qcurve" smooth="yes" />
      <point x="481" y="480" />
    </contour>
    <contour>
      <point x="184" y="186" type="qcurve" />
      <point x="448" y="611" type="line" />
      <point x="405" y="723" />
      <point x="324" y="719" type="qcurve" smooth="yes" />
      <point x="247" y="715" />
      <point x="167" y="516" />
      <point x="167" y="363" type="qcurve" smooth="yes" />
      <point x="167" y="263" />
    </contour>
    <contour>
      <point x="585" y="756" type="line" />
      <point x="524" y="659" type="line" />
      <point x="600" y="558" />
      <point x="600" y="385" type="qcurve" smooth="yes" />
      <point x="600" y="294" />
      <point x="555" y="142" />
      <point x="478" y="41" />
      <point x="379" y="-16" />
      <point x="324" y="-19" type="qcurve" smooth="yes" />
      <point x="220" y="-24" />
      <point x="147" y="52" type="qcurve" />
      <point x="88" y="-42" type="line" />
      <point x="60" y="-14" type="line" />
      <point x="120" y="84" type="line" />
      <point x="47" y="187" />
      <point x="47" y="357" type="qcurve" smooth="yes" />
      <point x="47" y="537" />
      <point x="209" y="755" />
      <point x="324" y="760" type="qcurve" smooth="yes" />
      <point x="424" y="765" />
      <point x="498" y="691" type="qcurve" />
      <point x="556" y="785" type="line" />
    </contour>
  </outline>
</glyph>
<glyph name="Ugrave" format="2">
  <advance width="668" height="1000" />
  <unicode hex="00D9" />
  <outline>
    <contour>
      <point x="405" y="818" type="line" />
      <point x="392" y="796" type="line" />
      <point x="366" y="807" />
      <point x="266" y="858" type="qcurve" />
      <point x="215" y="887" />
      <point x="215" y="923" type="qcurve" smooth="yes" />
      <point x="215" y="941" />
      <point x="237" y="969" />
      <point x="254" y="970" type="qcurve" smooth="yes" />
      <point x="279" y="971" />
      <point x="313" y="929" type="qcurve" smooth="yes" />
    </contour>
    <contour>
      <point x="636" y="758" type="line" />
      <point x="636" y="722" type="line" />
      <point x="555" y="704" type="line" />
      <point x="552" y="317" type="line" />
      <point x="551" y="-8" />
      <point x="337" y="-18" type="qcurve" smooth="yes" />
      <point x="112" y="-29" />
      <point x="112" y="279" type="qcurve" smooth="yes" />
      <point x="112" y="390" type="line" smooth="yes" />
      <point x="112" y="588" />
      <point x="110" y="686" type="qcurve" />
      <point x="40" y="692" type="line" />
      <point x="40" y="728" type="line" />
      <point x="307" y="741" type="line" />
      <point x="307" y="705" type="line" />
      <point x="225" y="691" type="line" />
      <point x="223" y="594" />
      <point x="223" y="395" type="qcurve" smooth="yes" />
      <point x="223" y="302" type="line" smooth="yes" />
      <point x="223" y="169" />
      <point x="296" y="56" />
      <point x="368" y="59" type="qcurve" smooth="yes" />
      <point x="443" y="63" />
      <point x="518" y="191" />
      <point x="517" y="327" type="qcurve" smooth="yes" />
      <point x="515" y="701" type="line" />
      <point x="422" y="711" type="line" />
      <point x="422" y="747" type="line" />
    </contour>
  </outline>
</glyph>
<glyph name="Uacute" format="2">
  <advance width="668" height="1000" />
  <unicode hex="00DA" />
  <outline>
    <contour>
      <point x="314" y="791" type="qcurve" />
      <point x="301" y="812" type="line" />
      <point x="316" y="833" />
      <point x="377" y="913" />
      <point x="392" y="932" type="qcurve" smooth="yes" />
      <point x="427" y="978" />
      <point x="452" y="979" type="qcurve" smooth="yes" />
      <point x="468" y="980" />
      <point x="490" y="954" />
      <point x="490" y="936" type="qcurve" smooth="yes" />
      <point x="490" y="899" />
      <point x="441" y="868" type="qcurve" />
      <point x="422" y="857" />
      <point x="337" y="804" />
    </contour>
    <contour>
      <point x="636" y="758" type="line" />
      <point x="636" y="722" type="line" />
      <point x="555" y="704" type="line" />
      <point x="552" y="317" type="line" />
      <point x="551" y="-8" />
      <point x="337" y="-18" type="qcurve" smooth="yes" />
      <point x="112" y="-29" />
      <point x="112" y="279" type="qcurve" smooth="yes" />
      <point x="112" y="390" type="line" smooth="yes" />
      <point x="112" y="588" />
      <point x="110" y="686" type="qcurve" />
      <point x="40" y="692" type="line" />
      <point x="40" y="728" type="line" />
      <point x="307" y="741" type="line" />
      <point x="307" y="705" type="line" />
      <point x="225" y="691" type="line" />
      <point x="223" y="594" />
      <point x="223" y="395" type="qcurve" smooth="yes" />
      <point x="223" y="302" type="line" smooth="yes" />
      <point x="223" y="169" />
      <point x="296" y="56" />
      <point x="368" y="59" type="qcurve" smooth="yes" />
      <point x="443" y="63" />
      <point x="518" y="191" />
      <point x="517" y="327" type="qcurve" smooth="yes" />
      <point x="515" y="701" type="line" />
      <point x="422" y="711" type="line" />
      <point x="422" y="747" type="line" />
    </contour>
  </outline>
</glyph>
<glyph name="Udieresis" format="2">
  <advance width="668" height="1000" />
  <unicode hex="00DC" />
  <outline>
    <contour>
      <point x="468" y="820" type="qcurve" smooth="yes" />
      <point x="446" y="819" />
      <point x="413" y="854" />
      <point x="413" y="883" type="qcurve" smooth="yes" />
      <point x="413" y="913" />
      <point x="445" y="950" />
      <point x="468" y="951" type="qcurve" smooth="yes" />
      <point x="491" y="952" />
      <point x="524" y="918" />
      <point x="524" y="888" type="qcurve" smooth="yes" />
      <point x="524" y="859" />
      <point x="491" y="821" />
    </contour>
    <contour>
      <point x="258" y="810" type="qcurve" smooth="yes" />
      <point x="236" y="809" />
      <point x="204" y="843" />
      <point x="204" y="872" type="qcurve" smooth="yes" />
      <point x="204" y="902" />
      <point x="236" y="940" />
      <point x="258" y="941" type="qcurve" smooth="yes" />
      <point x="281" y="942" />
      <point x="313" y="908" />
      <point x="313" y="878" type="qcurve" smooth="yes" />
      <point x="313" y="849" />
      <point x="281" y="811" />
    </contour>
    <contour>
      <point x="636" y="758" type="line" />
      <point x="636" y="722" type="line" />
      <point x="555" y="704" type="line" />
      <point x="552" y="317" type="line" />
      <point x="551" y="-8" />
      <point x="337" y="-18" type="qcurve" smooth="yes" />
      <point x="112" y="-29" />
      <point x="112" y="279" type="qcurve" smooth="yes" />
      <point x="112" y="390" type="line" smooth="yes" />
      <point x="112" y="588" />
      <point x="110" y="686" type="qcurve" />
      <point x="40" y="692" type="line" />
      <point x="40" y="728" type="line" />
      <point x="307" y="741" type="line" />
      <point x="307" y="705" type="line" />
      <point x="225" y="691" type="line" />
      <point x="223" y="594" />
      <point x="223" y="395" type="qcurve" smooth="yes" />
      <point x="223" y="302" type="line" smooth="yes" />
      <point x="223" y="169" />
      <point x="296" y="56" />
      <point x="368" y="59" type="qcurve" smooth="yes" />
      <point x="443" y="63" />
      <point x="518" y="191" />
      <point x="517" y="327" type="qcurve" smooth="yes" />
      <point x="515" y="701" type="line" />
      <point x="422" y="711" type="line" />
      <point x="422" y="747" type="line" />
    </contour>
  </outline>
</glyph>
<glyph name="Yacute" format="2">
  <advance width="564" height="1000" />
  <unicode hex="00DD" />
  <outline>
    <contour>
      <point x="287" y="791" type="qcurve" />
      <point x="274" y="812" type="line" />
      <point x="289" y="833" />
      <point x="350" y="913" />
      <point x="364" y="933" type="qcurve" />
      <point x="399" y="978" />
      <point x="424" y="980" type="qcurve" />
      <point x="441" y="980" />
      <point x="463" y="955" />
      <point x="463" y="937" type="qcurve" smooth="yes" />
      <point x="463" y="900" />
      <point x="414" y="868" type="qcurve" smooth="yes" />
      <point x="393" y="855" />
      <point x="308" y="803" />
    </contour>
    <contour>
      <point x="491" y="703" type="line" />
      <point x="341" y="312" type="line" />
      <point x="341" y="122" />
      <point x="343" y="47" type="qcurve" />
      <point x="429" y="42" type="line" />
      <point x="429" y="7" type="line" />
      <point x="143" y="-7" type="line" />
      <point x="143" y="28" type="line" />
      <point x="228" y="41" type="line" />
      <point x="230" y="113" />
      <point x="230" y="288" type="qcurve" />
      <point x="69" y="688" type="line" />
      <point x="16" y="692" type="line" />
      <point x="16" y="728" type="line" />
      <point x="279" y="741" type="line" />
      <point x="279" y="705" type="line" />
      <point x="197" y="690" type="line" />
      <point x="323" y="354" type="line" />
      <point x="449" y="701" type="line" />
      <point x="370" y="710" type="line" />
      <point x="370" y="746" type="line" />
      <point x="562" y="755" type="line" />
      <point x="562" y="719" type="line" />
    </contour>
  </outline>
</glyph>
<glyph name="Thorn" format="2">
  <advance width="563" height="1000" />
  <unicode hex="00DE" />
  <outline>
    <contour>
      <point x="284" y="561" type="qcurve" smooth="yes" />
      <point x="233" y="558" type="line" />
      <point x="233" y="204" type="line" />
      <point x="284" y="207" type="line" smooth="yes" />
      <point x="354" y="210" />
      <point x="429" y="309" />
      <point x="429" y="392" type="qcurve" smooth="yes" />
      <point x="429" y="568" />
    </contour>
    <contour>
      <point x="278" y="168" type="qcurve" />
      <point x="233" y="165" type="line" />
      <point x="233" y="124" />
      <point x="235" y="42" type="qcurve" />
      <point x="317" y="37" type="line" />
      <point x="317" y="2" type="line" />
      <point x="45" y="-12" type="line" />
      <point x="45" y="23" type="line" />
      <point x="121" y="36" type="line" />
      <point x="123" y="135" />
      <point x="123" y="338" type="qcurve" smooth="yes" />
      <point x="123" y="387" type="line" smooth="yes" />
      <point x="123" y="588" />
      <point x="121" y="688" type="qcurve" />
      <point x="45" y="694" type="line" />
      <point x="45" y="730" type="line" />
      <point x="317" y="744" type="line" />
      <point x="317" y="708" type="line" />
      <point x="235" y="693" type="line" />
      <point x="233" y="629" />
      <point x="233" y="597" type="qcurve" />
      <point x="289" y="600" type="line" smooth="yes" />
      <point x="535" y="612" />
      <point x="535" y="398" type="qcurve" smooth="yes" />
      <point x="535" y="180" />
    </contour>
  </outline>
</glyph>
<glyph name="germandbls" format="2">
  <advance width="572" height="1000" />
  <unicode hex="00DF" />
  <outline>
    <contour>
      <point x="95" y="226" type="qcurve" smooth="yes" />
      <point x="95" y="488" type="line" smooth="yes" />
      <point x="95" y="648" />
      <point x="153" y="729" type="qcurve" />
      <point x="219" y="827" />
      <point x="332" y="833" type="qcurve" />
      <point x="409" y="836" />
      <point x="496" y="758" />
      <point x="496" y="696" type="qcurve" smooth="yes" />
      <point x="496" y="655" />
      <point x="459" y="587" />
      <point x="421" y="550" type="qcurve" smooth="yes" />
      <point x="363" y="494" />
      <point x="363" y="444" type="qcurve" smooth="yes" />
      <point x="363" y="414" />
      <point x="395" y="374" />
      <point x="441" y="343" type="qcurve" smooth="yes" />
      <point x="499" y="303" />
      <point x="548" y="223" />
      <point x="548" y="170" type="qcurve" smooth="yes" />
      <point x="548" y="92" />
      <point x="458" y="-7" />
      <point x="379" y="-11" type="qcurve" smooth="yes" />
      <point x="311" y="-14" />
      <point x="257" y="17" type="qcurve" />
      <point x="260" y="160" type="line" />
      <point x="305" y="162" type="line" />
      <point x="331" y="32" type="line" />
      <point x="350" y="26" />
      <point x="372" y="28" type="qcurve" />
      <point x="414" y="30" />
      <point x="457" y="82" />
      <point x="457" y="124" type="qcurve" smooth="yes" />
      <point x="457" y="160" />
      <point x="423" y="208" />
      <point x="378" y="236" type="qcurve" />
      <point x="327" y="265" />
      <point x="278" y="327" />
      <point x="278" y="376" type="qcurve" smooth="yes" />
      <point x="278" y="418" />
      <point x="312" y="483" />
      <point x="349" y="525" type="qcurve" smooth="yes" />
      <point x="406" y="591" />
      <point x="406" y="675" type="qcurve" smooth="yes" />
      <point x="406" y="731" />
      <point x="363" y="795" />
      <point x="320" y="793" type="qcurve" smooth="yes" />
      <point x="254" y="790" />
      <point x="227" y="722" type="qcurve" />
      <point x="211" y="688" />
      <point x="199" y="580" />
      <point x="199" y="480" type="qcurve" smooth="yes" />
      <point x="199" y="231" type="line" smooth="yes" />
      <point x="199" y="100" />
      <point x="202" y="-4" type="qcurve" />
      <point x="31" y="-12" type="line" />
      <point x="31" y="19" type="line" />
      <point x="93" y="31" type="line" />
      <point x="95" y="127" />
    </contour>
  </outline>
</glyph>
<glyph name="aring" format="2">
  <advance width="475" height="1000" />
  <unicode hex="00E5" />
  <outline>
    <contour>
      <point x="241" y="819" type="qcurve" />
      <point x="213" y="817" />
      <point x="180" y="769" />
      <point x="180" y="736" type="qcurve" smooth="yes" />
      <point x="180" y="705" />
      <point x="213" y="658" />
      <point x="241" y="660" type="qcurve" />
      <point x="268" y="661" />
      <point x="302" y="711" />
      <point x="302" y="742" type="qcurve" smooth="yes" />
      <point x="302" y="775" />
      <point x="270" y="820" />
    </contour>
    <contour>
      <point x="311" y="657" type="qcurve" smooth="yes" />
      <point x="282" y="623" />
      <point x="200" y="619" />
      <point x="144" y="681" />
      <point x="144" y="787" />
      <point x="200" y="856" />
      <point x="241" y="858" type="qcurve" smooth="yes" />
      <point x="283" y="860" />
      <point x="340" y="798" />
      <point x="340" y="744" type="qcurve" smooth="yes" />
      <point x="340" y="691" />
    </contour>
    <contour>
      <point x="292" y="104" type="qcurve" />
      <point x="292" y="301" type="line" />
      <point x="242" y="281" />
      <point x="232" y="274" type="qcurve" />
      <point x="144" y="227" />
      <point x="144" y="131" type="qcurve" smooth="yes" />
      <point x="144" y="88" />
      <point x="179" y="45" />
      <point x="208" y="47" type="qcurve" smooth="yes" />
      <point x="228" y="48" />
      <point x="263" y="73" />
    </contour>
    <contour>
      <point x="459" y="79" type="qcurve" />
      <point x="473" y="65" type="line" />
      <point x="444" y="-5" />
      <point x="382" y="-8" type="qcurve" smooth="yes" />
      <point x="312" y="-12" />
      <point x="295" y="75" type="qcurve" />
      <point x="258" y="25" />
      <point x="202" y="-18" />
      <point x="160" y="-20" type="qcurve" smooth="yes" />
      <point x="109" y="-23" />
      <point x="44" y="46" />
      <point x="44" y="108" type="qcurve" smooth="yes" />
      <point x="44" y="172" />
      <point x="114" y="256" />
      <point x="204" y="296" type="qcurve" />
      <point x="242" y="314" />
      <point x="292" y="330" type="qcurve" />
      <point x="292" y="381" type="line" smooth="yes" />
      <point x="292" y="459" />
      <point x="256" y="514" />
      <point x="210" y="512" type="qcurve" smooth="yes" />
      <point x="190" y="511" />
      <point x="168" y="504" type="qcurve" />
      <point x="157" y="431" type="line" />
      <point x="152" y="354" />
      <point x="105" y="352" type="qcurve" smooth="yes" />
      <point x="64" y="350" />
      <point x="57" y="395" type="qcurve" />
      <point x="65" y="464" />
      <point x="163" y="547" />
      <point x="245" y="551" type="qcurve" smooth="yes" />
      <point x="324" y="555" />
      <point x="394" y="466" />
      <point x="394" y="361" type="qcurve" smooth="yes" />
      <point x="394" y="103" type="line" smooth="yes" />
      <point x="394" y="43" />
      <point x="423" y="45" type="qcurve" />
      <point x="439" y="45" />
    </contour>
  </outline>
</glyph>
<glyph name="ae" format="2">
  <advance width="720" height="1000" />
  <unicode hex="00E6" />
  <outline>
    <contour>
      <point x="215" y="41" type="qcurve" smooth="yes" />
      <point x="239" y="42" />
      <point x="283" y="72" />
      <point x="317" y="112" type="qcurve" />
      <point x="289" y="176" />
      <point x="289" y="264" type="qcurve" smooth="yes" />
      <point x="289" y="283" />
      <point x="290" y="292" type="qcurve" />
      <point x="257" y="277" />
      <point x="230" y="262" type="qcurve" smooth="yes" />
      <point x="144" y="216" />
      <point x="144" y="128" type="qcurve" smooth="yes" />
      <point x="144" y="84" />
      <point x="184" y="39" />
    </contour>
    <contour>
      <point x="400" y="308" type="qcurve" />
      <point x="536" y="315" type="line" smooth="yes" />
      <point x="563" y="316" />
      <point x="583" y="351" />
      <point x="583" y="391" type="qcurve" smooth="yes" />
      <point x="583" y="451" />
      <point x="536" y="522" />
      <point x="499" y="520" type="qcurve" smooth="yes" />
      <point x="458" y="518" />
      <point x="403" y="413" />
    </contour>
    <contour>
      <point x="676" y="285" type="qcurve" />
      <point x="400" y="271" type="line" />
      <point x="402" y="162" />
      <point x="480" y="55" />
      <point x="543" y="58" type="qcurve" smooth="yes" />
      <point x="616" y="62" />
      <point x="661" y="141" type="qcurve" />
      <point x="678" y="129" type="line" />
      <point x="626" y="-4" />
      <point x="499" y="-10" type="qcurve" smooth="yes" />
      <point x="388" y="-16" />
      <point x="329" y="88" type="qcurve" />
      <point x="287" y="26" />
      <point x="209" y="-24" />
      <point x="162" y="-27" type="qcurve" />
      <point x="109" y="-29" />
      <point x="44" y="41" />
      <point x="44" y="105" type="qcurve" smooth="yes" />
      <point x="44" y="166" />
      <point x="114" y="249" />
      <point x="204" y="288" type="qcurve" />
      <point x="236" y="303" />
      <point x="292" y="324" type="qcurve" />
      <point x="292" y="376" type="line" smooth="yes" />
      <point x="292" y="454" />
      <point x="256" y="508" />
      <point x="211" y="506" type="qcurve" smooth="yes" />
      <point x="193" y="505" />
      <point x="169" y="499" type="qcurve" />
      <point x="160" y="422" type="line" smooth="yes" />
      <point x="156" y="384" />
      <point x="127" y="344" />
      <point x="106" y="343" type="qcurve" smooth="yes" />
      <point x="64" y="341" />
      <point x="57" y="388" type="qcurve" />
      <point x="65" y="457" />
      <point x="163" y="540" />
      <point x="245" y="544" type="qcurve" smooth="yes" />
      <point x="340" y="549" />
      <point x="371" y="479" type="qcurve" />
      <point x="424" y="553" />
      <point x="506" y="557" type="qcurve" smooth="yes" />
      <point x="587" y="561" />
      <point x="682" y="443" />
      <point x="682" y="346" type="qcurve" smooth="yes" />
      <point x="682" y="309" />
    </contour>
  </outline>
</glyph>
<glyph name="ccedilla" format="2">
  <advance width="465" height="1000" />
  <unicode hex="00E7" />
  <outline>
    <contour>
      <point x="323" y="435" type="qcurve" />
      <point x="311" y="513" type="line" />
      <point x="298" y="517" />
      <point x="280" y="516" type="qcurve" smooth="yes" />
      <point x="221" y="513" />
      <point x="150" y="385" />
      <point x="150" y="275" type="qcurve" smooth="yes" />
      <point x="150" y="168" />
      <point x="229" y="50" />
      <point x="295" y="53" type="qcurve" smooth="yes" />
      <point x="365" y="57" />
      <point x="410" y="134" type="qcurve" />
      <point x="427" y="124" type="line" />
      <point x="377" y="-6" />
      <point x="257" y="-15" type="qcurve" />
      <point x="253" y="-68" type="line" />
      <point x="299" y="-70" />
      <point x="349" y="-114" />
      <point x="349" y="-150" type="qcurve" smooth="yes" />
      <point x="349" y="-189" />
      <point x="295" y="-245" />
      <point x="246" y="-247" type="qcurve" smooth="yes" />
      <point x="214" y="-249" />
      <point x="181" y="-238" type="qcurve" />
      <point x="188" y="-206" type="line" />
      <point x="207" y="-212" />
      <point x="234" y="-211" type="qcurve" smooth="yes" />
      <point x="284" y="-209" />
      <point x="284" y="-153" type="qcurve" smooth="yes" />
      <point x="284" y="-103" />
      <point x="221" y="-97" type="qcurve" />
      <point x="230" y="-15" type="line" />
      <point x="145" y="-10" />
      <point x="40" y="134" />
      <point x="40" y="256" type="qcurve" smooth="yes" />
      <point x="40" y="387" />
      <point x="171" y="548" />
      <point x="267" y="553" type="qcurve" smooth="yes" />
      <point x="329" y="556" />
      <point x="418" y="475" />
      <point x="427" y="411" type="qcurve" />
      <point x="417" y="363" />
      <point x="381" y="361" type="qcurve" smooth="yes" />
      <point x="329" y="359" />
    </contour>
  </outline>
</glyph>
<glyph name="egrave" format="2">
  <advance width="474" height="1000" />
  <unicode hex="00E8" />
  <outline>
    <contour>
      <point x="300" y="646" type="qcurve" />
      <point x="282" y="630" type="line" />
      <point x="229" y="682" />
      <point x="178" y="725" type="qcurve" smooth="yes" />
      <point x="131" y="765" />
      <point x="131" y="800" type="qcurve" smooth="yes" />
      <point x="131" y="823" />
      <point x="155" y="851" />
      <point x="170" y="852" type="qcurve" smooth="yes" />
      <point x="204" y="854" />
      <point x="229" y="796" type="qcurve" />
      <point x="241" y="771" />
    </contour>
    <contour>
      <point x="152" y="303" type="qcurve" />
      <point x="289" y="310" type="line" smooth="yes" />
      <point x="315" y="311" />
      <point x="334" y="346" />
      <point x="334" y="386" type="qcurve" smooth="yes" />
      <point x="334" y="446" />
      <point x="288" y="517" />
      <point x="251" y="515" type="qcurve" smooth="yes" />
      <point x="210" y="513" />
      <point x="155" y="407" />
    </contour>
    <contour>
      <point x="429" y="280" type="qcurve" />
      <point x="152" y="266" type="line" />
      <point x="154" y="156" />
      <point x="232" y="50" />
      <point x="293" y="53" type="qcurve" smooth="yes" />
      <point x="368" y="57" />
      <point x="413" y="136" type="qcurve" />
      <point x="429" y="123" type="line" />
      <point x="405" y="60" />
      <point x="317" y="-12" />
      <point x="257" y="-15" type="qcurve" smooth="yes" />
      <point x="161" y="-19" />
      <point x="41" y="126" />
      <point x="41" y="259" type="qcurve" smooth="yes" />
      <point x="41" y="388" />
      <point x="169" y="548" />
      <point x="258" y="552" type="qcurve" smooth="yes" />
      <point x="339" y="556" />
      <point x="434" y="438" />
      <point x="434" y="342" type="qcurve" smooth="yes" />
      <point x="434" y="304" />
    </contour>
  </outline>
</glyph>
<glyph name="eacute" format="2">
  <advance width="474" height="1000" />
  <unicode hex="00E9" />
  <outline>
    <contour>
      <point x="226" y="627" type="qcurve" />
      <point x="208" y="642" type="line" />
      <point x="217" y="661" />
      <point x="264" y="761" />
      <point x="281" y="798" type="qcurve" />
      <point x="307" y="859" />
      <point x="337" y="860" type="qcurve" />
      <point x="353" y="861" />
      <point x="377" y="835" />
      <point x="377" y="812" type="qcurve" smooth="yes" />
      <point x="377" y="773" />
      <point x="331" y="732" type="qcurve" smooth="yes" />
      <point x="270" y="676" />
    </contour>
    <contour>
      <point x="152" y="303" type="qcurve" />
      <point x="289" y="310" type="line" smooth="yes" />
      <point x="315" y="311" />
      <point x="334" y="346" />
      <point x="334" y="386" type="qcurve" smooth="yes" />
      <point x="334" y="446" />
      <point x="288" y="517" />
      <point x="251" y="515" type="qcurve" smooth="yes" />
      <point x="210" y="513" />
      <point x="155" y="407" />
    </contour>
    <contour>
      <point x="429" y="280" type="qcurve" />
      <point x="152" y="266" type="line" />
      <point x="154" y="156" />
      <point x="232" y="50" />
      <point x="293" y="53" type="qcurve" smooth="yes" />
      <point x="368" y="57" />
      <point x="413" y="136" type="qcurve" />
      <point x="429" y="123" type="line" />
      <point x="405" y="60" />
      <point x="317" y="-12" />
      <point x="257" y="-15" type="qcurve" smooth="yes" />
      <point x="161" y="-19" />
      <point x="41" y="126" />
      <point x="41" y="259" type="qcurve" smooth="yes" />
      <point x="41" y="388" />
      <point x="169" y="548" />
      <point x="258" y="552" type="qcurve" smooth="yes" />
      <point x="339" y="556" />
      <point x="434" y="438" />
      <point x="434" y="342" type="qcurve" smooth="yes" />
      <point x="434" y="304" />
    </contour>
  </outline>
</glyph>
